<svg width="369" height="310" viewBox="0 0 369 310" fill="none" xmlns="http://www.w3.org/2000/svg">
<g filter="url(#filter0_d_760_27822)">
<g clip-path="url(#clip0_760_27822)">
<rect x="15" y="11" width="339" height="280" rx="14" fill="url(#paint0_linear_760_27822)"/>
<rect x="15" y="11" width="339" height="280" rx="14" fill="url(#paint1_linear_760_27822)" fill-opacity="0.25"/>
<circle cx="11.5" cy="16.5" r="38.5" fill="#F3F3F3"/>
<circle cx="352" cy="19" r="36" fill="#F3F3F3"/>
<path d="M36.76 220.816C36.8667 218.683 37.6133 217.04 39 215.888C40.408 214.715 42.2533 214.128 44.536 214.128C46.0933 214.128 47.4267 214.405 48.536 214.96C49.6453 215.493 50.4773 216.229 51.032 217.168C51.608 218.085 51.896 219.131 51.896 220.304C51.896 221.648 51.544 222.789 50.84 223.728C50.1573 224.645 49.336 225.264 48.376 225.584V225.712C49.6133 226.096 50.5733 226.779 51.256 227.76C51.96 228.741 52.312 230 52.312 231.536C52.312 232.816 52.0133 233.957 51.416 234.96C50.84 235.963 49.976 236.752 48.824 237.328C47.6933 237.883 46.328 238.16 44.728 238.16C42.3173 238.16 40.3547 237.552 38.84 236.336C37.3253 235.12 36.5253 233.328 36.44 230.96H40.792C40.8347 232.005 41.1867 232.848 41.848 233.488C42.5307 234.107 43.4587 234.416 44.632 234.416C45.72 234.416 46.552 234.117 47.128 233.52C47.7253 232.901 48.024 232.112 48.024 231.152C48.024 229.872 47.6187 228.955 46.808 228.4C45.9973 227.845 44.7387 227.568 43.032 227.568H42.104V223.888H43.032C46.0613 223.888 47.576 222.875 47.576 220.848C47.576 219.931 47.2987 219.216 46.744 218.704C46.2107 218.192 45.432 217.936 44.408 217.936C43.4053 217.936 42.6267 218.213 42.072 218.768C41.5387 219.301 41.2293 219.984 41.144 220.816H36.76ZM71.5323 218.544H61.1643V224.016C61.6123 223.461 62.2523 223.013 63.0843 222.672C63.9163 222.309 64.8016 222.128 65.7403 222.128C67.4469 222.128 68.8443 222.501 69.9323 223.248C71.0203 223.995 71.8096 224.955 72.3003 226.128C72.7909 227.28 73.0363 228.517 73.0363 229.84C73.0363 232.293 72.3323 234.267 70.9243 235.76C69.5376 237.253 67.5536 238 64.9723 238C62.5403 238 60.5989 237.392 59.1483 236.176C57.6976 234.96 56.8763 233.371 56.6843 231.408H61.0363C61.2283 232.261 61.6549 232.944 62.3163 233.456C62.9989 233.968 63.8629 234.224 64.9083 234.224C66.1669 234.224 67.1163 233.829 67.7563 233.04C68.3963 232.251 68.7163 231.205 68.7163 229.904C68.7163 228.581 68.3856 227.579 67.7243 226.896C67.0843 226.192 66.1349 225.84 64.8763 225.84C63.9803 225.84 63.2336 226.064 62.6363 226.512C62.0389 226.96 61.6123 227.557 61.3563 228.304H57.0683V214.608H71.5323V218.544ZM75.934 220.4C75.934 218.779 76.4033 217.509 77.342 216.592C78.302 215.675 79.5287 215.216 81.022 215.216C82.5153 215.216 83.7313 215.675 84.67 216.592C85.63 217.509 86.11 218.779 86.11 220.4C86.11 222.043 85.63 223.323 84.67 224.24C83.7313 225.157 82.5153 225.616 81.022 225.616C79.5287 225.616 78.302 225.157 77.342 224.24C76.4033 223.323 75.934 222.043 75.934 220.4ZM96.478 215.6L83.902 238H79.55L92.094 215.6H96.478ZM80.99 217.904C79.8167 217.904 79.23 218.736 79.23 220.4C79.23 222.085 79.8167 222.928 80.99 222.928C81.566 222.928 82.014 222.725 82.334 222.32C82.654 221.893 82.814 221.253 82.814 220.4C82.814 218.736 82.206 217.904 80.99 217.904ZM89.982 233.168C89.982 231.525 90.4513 230.256 91.39 229.36C92.35 228.443 93.5767 227.984 95.07 227.984C96.5633 227.984 97.7687 228.443 98.686 229.36C99.6247 230.256 100.094 231.525 100.094 233.168C100.094 234.811 99.6247 236.091 98.686 237.008C97.7687 237.925 96.5633 238.384 95.07 238.384C93.5553 238.384 92.3287 237.925 91.39 237.008C90.4513 236.091 89.982 234.811 89.982 233.168ZM95.038 230.672C93.822 230.672 93.214 231.504 93.214 233.168C93.214 234.853 93.822 235.696 95.038 235.696C96.2327 235.696 96.83 234.853 96.83 233.168C96.83 231.504 96.2327 230.672 95.038 230.672ZM118.922 215.664C121.269 215.664 123.328 216.123 125.098 217.04C126.89 217.957 128.266 219.269 129.226 220.976C130.208 222.661 130.698 224.624 130.698 226.864C130.698 229.104 130.208 231.067 129.226 232.752C128.266 234.416 126.89 235.707 125.098 236.624C123.328 237.541 121.269 238 118.922 238H111.114V215.664H118.922ZM118.762 234.192C121.109 234.192 122.922 233.552 124.202 232.272C125.482 230.992 126.122 229.189 126.122 226.864C126.122 224.539 125.482 222.725 124.202 221.424C122.922 220.101 121.109 219.44 118.762 219.44H115.594V234.192H118.762ZM150.532 228.752C150.532 229.392 150.489 229.968 150.404 230.48H137.444C137.55 231.76 137.998 232.763 138.788 233.488C139.577 234.213 140.548 234.576 141.7 234.576C143.364 234.576 144.548 233.861 145.252 232.432H150.084C149.572 234.139 148.59 235.547 147.14 236.656C145.689 237.744 143.908 238.288 141.796 238.288C140.089 238.288 138.553 237.915 137.188 237.168C135.844 236.4 134.788 235.323 134.02 233.936C133.273 232.549 132.9 230.949 132.9 229.136C132.9 227.301 133.273 225.691 134.02 224.304C134.766 222.917 135.812 221.851 137.156 221.104C138.5 220.357 140.046 219.984 141.796 219.984C143.481 219.984 144.985 220.347 146.308 221.072C147.652 221.797 148.686 222.832 149.412 224.176C150.158 225.499 150.532 227.024 150.532 228.752ZM145.892 227.472C145.87 226.32 145.454 225.403 144.644 224.72C143.833 224.016 142.841 223.664 141.668 223.664C140.558 223.664 139.62 224.005 138.852 224.688C138.105 225.349 137.646 226.277 137.476 227.472H145.892ZM160.586 238.288C159.135 238.288 157.834 238.032 156.682 237.52C155.53 236.987 154.612 236.272 153.93 235.376C153.268 234.48 152.906 233.488 152.842 232.4H157.354C157.439 233.083 157.77 233.648 158.346 234.096C158.943 234.544 159.679 234.768 160.554 234.768C161.407 234.768 162.068 234.597 162.538 234.256C163.028 233.915 163.274 233.477 163.274 232.944C163.274 232.368 162.975 231.941 162.378 231.664C161.802 231.365 160.874 231.045 159.594 230.704C158.271 230.384 157.183 230.053 156.33 229.712C155.498 229.371 154.772 228.848 154.154 228.144C153.556 227.44 153.258 226.491 153.258 225.296C153.258 224.315 153.535 223.419 154.09 222.608C154.666 221.797 155.476 221.157 156.522 220.688C157.588 220.219 158.836 219.984 160.266 219.984C162.378 219.984 164.063 220.517 165.322 221.584C166.58 222.629 167.274 224.048 167.402 225.84H163.114C163.05 225.136 162.751 224.581 162.218 224.176C161.706 223.749 161.012 223.536 160.138 223.536C159.327 223.536 158.698 223.685 158.25 223.984C157.823 224.283 157.61 224.699 157.61 225.232C157.61 225.829 157.908 226.288 158.506 226.608C159.103 226.907 160.031 227.216 161.29 227.536C162.57 227.856 163.626 228.187 164.458 228.528C165.29 228.869 166.004 229.403 166.602 230.128C167.22 230.832 167.54 231.771 167.562 232.944C167.562 233.968 167.274 234.885 166.698 235.696C166.143 236.507 165.332 237.147 164.266 237.616C163.22 238.064 161.994 238.288 160.586 238.288ZM170.087 229.136C170.087 227.301 170.461 225.701 171.207 224.336C171.954 222.949 172.989 221.883 174.311 221.136C175.634 220.368 177.149 219.984 178.855 219.984C181.053 219.984 182.866 220.539 184.295 221.648C185.746 222.736 186.717 224.272 187.207 226.256H182.375C182.119 225.488 181.682 224.891 181.063 224.464C180.466 224.016 179.719 223.792 178.823 223.792C177.543 223.792 176.53 224.261 175.783 225.2C175.037 226.117 174.663 227.429 174.663 229.136C174.663 230.821 175.037 232.133 175.783 233.072C176.53 233.989 177.543 234.448 178.823 234.448C180.637 234.448 181.821 233.637 182.375 232.016H187.207C186.717 233.936 185.746 235.461 184.295 236.592C182.845 237.723 181.031 238.288 178.855 238.288C177.149 238.288 175.634 237.915 174.311 237.168C172.989 236.4 171.954 235.333 171.207 233.968C170.461 232.581 170.087 230.971 170.087 229.136ZM198.361 238.288C196.655 238.288 195.119 237.915 193.753 237.168C192.388 236.4 191.311 235.323 190.521 233.936C189.753 232.549 189.369 230.949 189.369 229.136C189.369 227.323 189.764 225.723 190.553 224.336C191.364 222.949 192.463 221.883 193.849 221.136C195.236 220.368 196.783 219.984 198.489 219.984C200.196 219.984 201.743 220.368 203.129 221.136C204.516 221.883 205.604 222.949 206.393 224.336C207.204 225.723 207.609 227.323 207.609 229.136C207.609 230.949 207.193 232.549 206.361 233.936C205.551 235.323 204.441 236.4 203.033 237.168C201.647 237.915 200.089 238.288 198.361 238.288ZM198.361 234.384C199.172 234.384 199.929 234.192 200.633 233.808C201.359 233.403 201.935 232.805 202.361 232.016C202.788 231.227 203.001 230.267 203.001 229.136C203.001 227.451 202.553 226.16 201.657 225.264C200.783 224.347 199.705 223.888 198.425 223.888C197.145 223.888 196.068 224.347 195.193 225.264C194.34 226.16 193.913 227.451 193.913 229.136C193.913 230.821 194.329 232.123 195.161 233.04C196.015 233.936 197.081 234.384 198.361 234.384ZM220.72 220.016C222.832 220.016 224.538 220.688 225.84 222.032C227.141 223.355 227.792 225.211 227.792 227.6V238H223.312V228.208C223.312 226.8 222.96 225.723 222.256 224.976C221.552 224.208 220.592 223.824 219.376 223.824C218.138 223.824 217.157 224.208 216.432 224.976C215.728 225.723 215.376 226.8 215.376 228.208V238H210.896V220.272H215.376V222.48C215.973 221.712 216.73 221.115 217.648 220.688C218.586 220.24 219.61 220.016 220.72 220.016ZM237.268 223.952V232.528C237.268 233.125 237.406 233.563 237.684 233.84C237.982 234.096 238.473 234.224 239.156 234.224H241.236V238H238.42C234.644 238 232.756 236.165 232.756 232.496V223.952H230.644V220.272H232.756V215.888H237.268V220.272H241.236V223.952H237.268ZM252.33 238.288C250.623 238.288 249.087 237.915 247.722 237.168C246.357 236.4 245.279 235.323 244.49 233.936C243.722 232.549 243.338 230.949 243.338 229.136C243.338 227.323 243.733 225.723 244.522 224.336C245.333 222.949 246.431 221.883 247.818 221.136C249.205 220.368 250.751 219.984 252.458 219.984C254.165 219.984 255.711 220.368 257.098 221.136C258.485 221.883 259.573 222.949 260.362 224.336C261.173 225.723 261.578 227.323 261.578 229.136C261.578 230.949 261.162 232.549 260.33 233.936C259.519 235.323 258.41 236.4 257.002 237.168C255.615 237.915 254.058 238.288 252.33 238.288ZM252.33 234.384C253.141 234.384 253.898 234.192 254.602 233.808C255.327 233.403 255.903 232.805 256.33 232.016C256.757 231.227 256.97 230.267 256.97 229.136C256.97 227.451 256.522 226.16 255.626 225.264C254.751 224.347 253.674 223.888 252.394 223.888C251.114 223.888 250.037 224.347 249.162 225.264C248.309 226.16 247.882 227.451 247.882 229.136C247.882 230.821 248.298 232.123 249.13 233.04C249.983 233.936 251.05 234.384 252.33 234.384Z" fill="white"/>
<path d="M41.816 263.256C42.2213 263.32 42.5893 263.485 42.92 263.752C43.2613 264.019 43.528 264.349 43.72 264.744C43.9227 265.139 44.024 265.56 44.024 266.008C44.024 266.573 43.88 267.085 43.592 267.544C43.304 267.992 42.8827 268.349 42.328 268.616C41.784 268.872 41.1387 269 40.392 269H36.232V257.848H40.232C40.9893 257.848 41.6347 257.976 42.168 258.232C42.7013 258.477 43.1013 258.813 43.368 259.24C43.6347 259.667 43.768 260.147 43.768 260.68C43.768 261.341 43.5867 261.891 43.224 262.328C42.872 262.755 42.4027 263.064 41.816 263.256ZM37.688 262.664H40.136C40.8187 262.664 41.3467 262.504 41.72 262.184C42.0933 261.864 42.28 261.421 42.28 260.856C42.28 260.291 42.0933 259.848 41.72 259.528C41.3467 259.208 40.808 259.048 40.104 259.048H37.688V262.664ZM40.264 267.8C40.9893 267.8 41.5547 267.629 41.96 267.288C42.3653 266.947 42.568 266.472 42.568 265.864C42.568 265.245 42.3547 264.76 41.928 264.408C41.5013 264.045 40.9307 263.864 40.216 263.864H37.688V267.8H40.264ZM45.5005 264.584C45.5005 263.688 45.6818 262.904 46.0445 262.232C46.4072 261.549 46.9032 261.021 47.5325 260.648C48.1725 260.275 48.8818 260.088 49.6605 260.088C50.4285 260.088 51.0952 260.253 51.6605 260.584C52.2258 260.915 52.6472 261.331 52.9245 261.832V260.232H54.3965V269H52.9245V267.368C52.6365 267.88 52.2045 268.307 51.6285 268.648C51.0632 268.979 50.4018 269.144 49.6445 269.144C48.8658 269.144 48.1618 268.952 47.5325 268.568C46.9032 268.184 46.4072 267.645 46.0445 266.952C45.6818 266.259 45.5005 265.469 45.5005 264.584ZM52.9245 264.6C52.9245 263.939 52.7912 263.363 52.5245 262.872C52.2578 262.381 51.8952 262.008 51.4365 261.752C50.9885 261.485 50.4925 261.352 49.9485 261.352C49.4045 261.352 48.9085 261.48 48.4605 261.736C48.0125 261.992 47.6552 262.365 47.3885 262.856C47.1218 263.347 46.9885 263.923 46.9885 264.584C46.9885 265.256 47.1218 265.843 47.3885 266.344C47.6552 266.835 48.0125 267.213 48.4605 267.48C48.9085 267.736 49.4045 267.864 49.9485 267.864C50.4925 267.864 50.9885 267.736 51.4365 267.48C51.8952 267.213 52.2578 266.835 52.5245 266.344C52.7912 265.843 52.9245 265.261 52.9245 264.6ZM58.313 261.864C58.6117 261.341 59.049 260.915 59.625 260.584C60.201 260.253 60.857 260.088 61.593 260.088C62.3823 260.088 63.0917 260.275 63.721 260.648C64.3503 261.021 64.8463 261.549 65.209 262.232C65.5717 262.904 65.753 263.688 65.753 264.584C65.753 265.469 65.5717 266.259 65.209 266.952C64.8463 267.645 64.345 268.184 63.705 268.568C63.0757 268.952 62.3717 269.144 61.593 269.144C60.8357 269.144 60.169 268.979 59.593 268.648C59.0277 268.317 58.601 267.896 58.313 267.384V269H56.857V257.16H58.313V261.864ZM64.265 264.584C64.265 263.923 64.1317 263.347 63.865 262.856C63.5983 262.365 63.2357 261.992 62.777 261.736C62.329 261.48 61.833 261.352 61.289 261.352C60.7557 261.352 60.2597 261.485 59.801 261.752C59.353 262.008 58.9903 262.387 58.713 262.888C58.4463 263.379 58.313 263.949 58.313 264.6C58.313 265.261 58.4463 265.843 58.713 266.344C58.9903 266.835 59.353 267.213 59.801 267.48C60.2597 267.736 60.7557 267.864 61.289 267.864C61.833 267.864 62.329 267.736 62.777 267.48C63.2357 267.213 63.5983 266.835 63.865 266.344C64.1317 265.843 64.265 265.256 64.265 264.584ZM75.2215 260.232L69.9415 273.128H68.4375L70.1655 268.904L66.6295 260.232H68.2455L70.9975 267.336L73.7175 260.232H75.2215ZM79.7891 269.144C79.1171 269.144 78.5145 269.032 77.9811 268.808C77.4478 268.573 77.0265 268.253 76.7171 267.848C76.4078 267.432 76.2371 266.957 76.2051 266.424H77.7091C77.7518 266.861 77.9545 267.219 78.3171 267.496C78.6905 267.773 79.1758 267.912 79.7731 267.912C80.3278 267.912 80.7651 267.789 81.0851 267.544C81.4051 267.299 81.5651 266.989 81.5651 266.616C81.5651 266.232 81.3945 265.949 81.0531 265.768C80.7118 265.576 80.1838 265.389 79.4691 265.208C78.8185 265.037 78.2851 264.867 77.8691 264.696C77.4638 264.515 77.1118 264.253 76.8131 263.912C76.5251 263.56 76.3811 263.101 76.3811 262.536C76.3811 262.088 76.5145 261.677 76.7811 261.304C77.0478 260.931 77.4265 260.637 77.9171 260.424C78.4078 260.2 78.9678 260.088 79.5971 260.088C80.5678 260.088 81.3518 260.333 81.9491 260.824C82.5465 261.315 82.8665 261.987 82.9091 262.84H81.4531C81.4211 262.381 81.2345 262.013 80.8931 261.736C80.5625 261.459 80.1145 261.32 79.5491 261.32C79.0265 261.32 78.6105 261.432 78.3011 261.656C77.9918 261.88 77.8371 262.173 77.8371 262.536C77.8371 262.824 77.9278 263.064 78.1091 263.256C78.3011 263.437 78.5358 263.587 78.8131 263.704C79.1011 263.811 79.4958 263.933 79.9971 264.072C80.6265 264.243 81.1385 264.413 81.5331 264.584C81.9278 264.744 82.2638 264.989 82.5411 265.32C82.8291 265.651 82.9785 266.083 82.9891 266.616C82.9891 267.096 82.8558 267.528 82.5891 267.912C82.3225 268.296 81.9438 268.6 81.4531 268.824C80.9731 269.037 80.4185 269.144 79.7891 269.144ZM85.7965 258.808C85.5192 258.808 85.2845 258.712 85.0925 258.52C84.9005 258.328 84.8045 258.093 84.8045 257.816C84.8045 257.539 84.9005 257.304 85.0925 257.112C85.2845 256.92 85.5192 256.824 85.7965 256.824C86.0632 256.824 86.2872 256.92 86.4685 257.112C86.6605 257.304 86.7565 257.539 86.7565 257.816C86.7565 258.093 86.6605 258.328 86.4685 258.52C86.2872 258.712 86.0632 258.808 85.7965 258.808ZM86.5005 260.232V269H85.0445V260.232H86.5005ZM90.758 261.432V266.6C90.758 267.027 90.8487 267.331 91.03 267.512C91.2113 267.683 91.526 267.768 91.974 267.768H93.046V269H91.734C90.9233 269 90.3153 268.813 89.91 268.44C89.5047 268.067 89.302 267.453 89.302 266.6V261.432H88.166V260.232H89.302V258.024H90.758V260.232H93.046V261.432H90.758ZM97.9141 269.144C97.2421 269.144 96.6395 269.032 96.1061 268.808C95.5728 268.573 95.1515 268.253 94.8421 267.848C94.5328 267.432 94.3621 266.957 94.3301 266.424H95.8341C95.8768 266.861 96.0795 267.219 96.4421 267.496C96.8155 267.773 97.3008 267.912 97.8981 267.912C98.4528 267.912 98.8901 267.789 99.2101 267.544C99.5301 267.299 99.6901 266.989 99.6901 266.616C99.6901 266.232 99.5195 265.949 99.1781 265.768C98.8368 265.576 98.3088 265.389 97.5941 265.208C96.9435 265.037 96.4101 264.867 95.9941 264.696C95.5888 264.515 95.2368 264.253 94.9381 263.912C94.6501 263.56 94.5061 263.101 94.5061 262.536C94.5061 262.088 94.6395 261.677 94.9061 261.304C95.1728 260.931 95.5515 260.637 96.0421 260.424C96.5328 260.2 97.0928 260.088 97.7221 260.088C98.6928 260.088 99.4768 260.333 100.074 260.824C100.671 261.315 100.991 261.987 101.034 262.84H99.5781C99.5461 262.381 99.3595 262.013 99.0181 261.736C98.6875 261.459 98.2395 261.32 97.6741 261.32C97.1515 261.32 96.7355 261.432 96.4261 261.656C96.1168 261.88 95.9621 262.173 95.9621 262.536C95.9621 262.824 96.0528 263.064 96.2341 263.256C96.4261 263.437 96.6608 263.587 96.9381 263.704C97.2261 263.811 97.6208 263.933 98.1221 264.072C98.7515 264.243 99.2635 264.413 99.6581 264.584C100.053 264.744 100.389 264.989 100.666 265.32C100.954 265.651 101.103 266.083 101.114 266.616C101.114 267.096 100.981 267.528 100.714 267.912C100.447 268.296 100.069 268.6 99.5781 268.824C99.0981 269.037 98.5435 269.144 97.9141 269.144Z" fill="#FAFAFA"/>
<g clip-path="url(#clip1_760_27822)">
<path d="M157.28 131.145V136.093C157.28 140.77 153.485 144.578 148.823 144.578C144.161 144.578 140.366 140.77 140.366 136.093V132.053C140.366 125.868 135.357 120.824 129.173 120.824C123.009 120.824 118 125.868 118 132.053V146.801H120.736V132.053C120.736 127.376 124.531 123.568 129.192 123.568C133.854 123.568 137.649 127.376 137.649 132.053V136.093C137.649 142.278 142.658 147.323 148.842 147.323C155.026 147.323 160.034 142.297 160.034 136.093V131.145H157.28Z" fill="white"/>
<path d="M129.192 119.355C131.767 119.355 133.854 117.261 133.854 114.677C133.854 112.094 131.767 110 129.192 110C126.617 110 124.53 112.094 124.53 114.677C124.53 117.261 126.617 119.355 129.192 119.355Z" fill="white"/>
<path d="M148.823 141.35C150.791 141.35 152.387 139.749 152.387 137.774C152.387 135.8 150.791 134.199 148.823 134.199C146.854 134.199 145.259 135.8 145.259 137.774C145.259 139.749 146.854 141.35 148.823 141.35Z" fill="white"/>
<path d="M168.627 131.068H174.252C176.987 131.068 178.914 132.575 178.914 135.185C178.914 136.77 178.143 138.026 176.91 138.664V138.702C178.625 139.205 179.569 140.809 179.569 142.607C179.569 145.641 177.199 147.207 174.367 147.207H168.607V131.068H168.627ZM174.252 137.871C175.716 137.871 176.621 136.847 176.621 135.436C176.621 134.025 175.754 133.059 174.233 133.059H170.881V137.871H174.252ZM174.502 145.235C176.236 145.235 177.257 144.134 177.257 142.471C177.257 140.848 176.178 139.727 174.502 139.727H170.881V145.235H174.502Z" fill="white"/>
<path d="M188.353 140.017H188.95V139.785C188.95 137.891 187.852 137.253 186.427 137.253C185.29 137.253 184.134 137.717 183.19 138.374L182.304 136.75C183.229 135.977 185.001 135.378 186.6 135.378C189.49 135.378 191.147 136.982 191.147 139.901V147.207H189.085V146.047C189.085 145.525 189.162 145.139 189.162 145.139H189.124C188.469 146.472 187.043 147.497 185.348 147.497C183.345 147.497 181.495 146.24 181.495 144.076C181.476 140.423 185.964 140.017 188.353 140.017ZM185.849 145.718C187.775 145.718 188.95 143.747 188.95 142.046V141.621H188.373C186.735 141.621 183.672 141.756 183.672 143.882C183.672 144.791 184.404 145.718 185.849 145.718Z" fill="white"/>
<path d="M194.422 131.068H196.637V136.422C196.637 137.002 196.541 137.407 196.541 137.407H196.579C197.254 136.17 198.718 135.378 200.317 135.378C203.438 135.378 205.364 137.852 205.364 141.428C205.364 145.1 203.187 147.477 200.124 147.477C198.621 147.477 197.215 146.704 196.464 145.39H196.425C196.425 145.39 196.502 145.738 196.502 146.26V147.188H194.422V131.068ZM199.835 145.564C201.665 145.564 203.168 144.076 203.168 141.447C203.168 138.934 201.819 137.311 199.912 137.311C198.178 137.311 196.579 138.548 196.579 141.466C196.579 143.535 197.639 145.564 199.835 145.564Z" fill="white"/>
<path d="M208.523 150.106C209.428 150.106 210.18 149.449 210.623 148.386L211.201 147.052L206.365 135.629H208.85L211.74 143.186C211.971 143.766 212.164 144.578 212.164 144.578H212.202C212.202 144.578 212.376 143.805 212.588 143.206L215.381 135.61H217.789L212.376 149.256C211.701 151.053 210.257 151.981 208.638 151.981C207.367 151.981 206.423 151.266 206.423 151.266L207.194 149.584C207.213 149.603 207.849 150.106 208.523 150.106Z" fill="white"/>
<path d="M219.773 144.288C220.64 145.139 221.95 145.641 223.163 145.641C224.319 145.641 225.128 145.1 225.128 144.134C225.128 141.911 219.214 142.51 219.214 138.722C219.214 136.538 221.102 135.378 223.356 135.378C224.685 135.378 226.092 135.745 227.093 136.654L226.207 138.258C225.533 137.62 224.319 137.233 223.298 137.233C222.181 137.233 221.333 137.697 221.333 138.664C221.333 140.925 227.286 140.268 227.286 144.076C227.286 146.047 225.61 147.477 223.144 147.477C221.603 147.477 219.889 146.955 218.752 145.796L219.773 144.288Z" fill="white"/>
<path d="M229.849 131.068H232.122V133.31H229.849V131.068ZM229.887 135.649H232.103V147.207H229.887V135.649Z" fill="white"/>
<path d="M235.974 137.562H234.472V135.765H236.013V132.479H238.17V135.765H240.944V137.562H238.17V142.723C238.17 145.023 239.789 145.332 240.636 145.332C240.79 145.332 240.925 145.332 241.156 145.294V147.265C240.983 147.284 240.733 147.342 240.386 147.342C238.902 147.342 235.974 146.859 235.974 142.993V137.562Z" fill="white"/>
<path d="M243.506 144.288C244.373 145.139 245.683 145.641 246.897 145.641C248.053 145.641 248.862 145.1 248.862 144.134C248.862 141.911 242.948 142.51 242.948 138.722C242.948 136.538 244.836 135.378 247.089 135.378C248.419 135.378 249.825 135.745 250.827 136.654L249.941 138.258C249.266 137.62 248.053 137.233 247.032 137.233C245.914 137.233 245.067 137.697 245.067 138.664C245.067 140.925 251.019 140.268 251.019 144.076C251.019 146.047 249.343 147.477 246.878 147.477C245.336 147.477 243.622 146.955 242.485 145.796L243.506 144.288Z" fill="white"/>
</g>
<circle cx="68" cy="16" r="34" fill="white"/>
<circle cx="20.5" cy="1.5" r="25.5" fill="white"/>
<circle cx="122.5" cy="-8.5" r="25.5" fill="white"/>
<ellipse cx="163.5" cy="-3" rx="27.5" ry="28" fill="white"/>
<ellipse cx="213" cy="9.5" rx="35" ry="35.5" fill="#F3F3F3"/>
<circle cx="264" r="19" fill="white"/>
<circle cx="302.5" cy="14.5" r="23.5" fill="white"/>
<circle cx="338.5" cy="0.5" r="25.5" fill="white"/>
</g>
</g>
<defs>
<filter id="filter0_d_760_27822" x="0" y="0" width="369" height="310" filterUnits="userSpaceOnUse" color-interpolation-filters="sRGB">
<feFlood flood-opacity="0" result="BackgroundImageFix"/>
<feColorMatrix in="SourceAlpha" type="matrix" values="0 0 0 0 0 0 0 0 0 0 0 0 0 0 0 0 0 0 127 0" result="hardAlpha"/>
<feOffset dy="4"/>
<feGaussianBlur stdDeviation="7.5"/>
<feComposite in2="hardAlpha" operator="out"/>
<feColorMatrix type="matrix" values="0 0 0 0 0 0 0 0 0 0 0 0 0 0 0 0 0 0 0.04 0"/>
<feBlend mode="normal" in2="BackgroundImageFix" result="effect1_dropShadow_760_27822"/>
<feBlend mode="normal" in="SourceGraphic" in2="effect1_dropShadow_760_27822" result="shape"/>
</filter>
<linearGradient id="paint0_linear_760_27822" x1="379.299" y1="-27" x2="-25.6782" y2="341.78" gradientUnits="userSpaceOnUse">
<stop stop-color="#67DBE6"/>
<stop offset="1" stop-color="#5ABFC9"/>
</linearGradient>
<linearGradient id="paint1_linear_760_27822" x1="184.952" y1="151" x2="184.952" y2="291" gradientUnits="userSpaceOnUse">
<stop stop-opacity="0"/>
<stop offset="1" stop-opacity="0.2"/>
</linearGradient>
<clipPath id="clip0_760_27822">
<rect x="15" y="11" width="339" height="280" rx="14" fill="white"/>
</clipPath>
<clipPath id="clip1_760_27822">
<rect width="133" height="42" fill="white" transform="translate(118 110)"/>
</clipPath>
</defs>
</svg>
