<svg width="375" height="700" viewBox="0 0 375 700" fill="none" xmlns="http://www.w3.org/2000/svg">
<path d="M161.386 96.4223C120.248 5.24876 6.86877 -38.1051 -48.3067 45.3254C-82.1366 96.4793 -101.759 158.426 -105.258 225.121C-108.758 291.815 -96.0155 360.978 -68.2743 425.86C-40.5331 490.742 1.2589 549.126 53.0231 595.315C104.787 641.503 164.755 673.918 227.074 689.395C289.393 704.872 351.934 702.883 408.593 683.623C465.252 664.362 514.094 628.487 550.352 579.5C615.443 491.556 538.346 382.998 432.82 354.101L384.654 340.91C303.029 318.558 235.628 260.963 200.822 183.822L161.386 96.4223Z" fill="url(#paint0_radial_705_4104)" fill-opacity="0.7"/>
<defs>
<radialGradient id="paint0_radial_705_4104" cx="0" cy="0" r="1" gradientUnits="userSpaceOnUse" gradientTransform="translate(255.778 305.619) rotate(-30) scale(344.218 409.353)">
<stop stop-color="#018EAA"/>
<stop offset="1" stop-color="#80C5D3"/>
</radialGradient>
</defs>
</svg>
