<svg width="90" height="116" viewBox="0 0 90 116" fill="none" xmlns="http://www.w3.org/2000/svg">
<path d="M3.444 106.812C3.444 105.996 3.632 105.264 4.008 104.616C4.392 103.968 4.908 103.464 5.556 103.104C6.212 102.736 6.928 102.552 7.704 102.552C8.592 102.552 9.38 102.772 10.068 103.212C10.764 103.644 11.268 104.26 11.58 105.06H9.936C9.72 104.62 9.42 104.292 9.036 104.076C8.652 103.86 8.208 103.752 7.704 103.752C7.152 103.752 6.66 103.876 6.228 104.124C5.796 104.372 5.456 104.728 5.208 105.192C4.968 105.656 4.848 106.196 4.848 106.812C4.848 107.428 4.968 107.968 5.208 108.432C5.456 108.896 5.796 109.256 6.228 109.512C6.66 109.76 7.152 109.884 7.704 109.884C8.208 109.884 8.652 109.776 9.036 109.56C9.42 109.344 9.72 109.016 9.936 108.576H11.58C11.268 109.376 10.764 109.992 10.068 110.424C9.38 110.856 8.592 111.072 7.704 111.072C6.92 111.072 6.204 110.892 5.556 110.532C4.908 110.164 4.392 109.656 4.008 109.008C3.632 108.36 3.444 107.628 3.444 106.812ZM13.8773 103.512C13.6293 103.512 13.4213 103.428 13.2533 103.26C13.0853 103.092 13.0013 102.884 13.0013 102.636C13.0013 102.388 13.0853 102.18 13.2533 102.012C13.4213 101.844 13.6293 101.76 13.8773 101.76C14.1173 101.76 14.3213 101.844 14.4893 102.012C14.6573 102.18 14.7413 102.388 14.7413 102.636C14.7413 102.884 14.6573 103.092 14.4893 103.26C14.3213 103.428 14.1173 103.512 13.8773 103.512ZM14.5493 104.388V111H13.1813V104.388H14.5493ZM19.6813 104.28C20.2013 104.28 20.6653 104.388 21.0733 104.604C21.4893 104.82 21.8133 105.14 22.0453 105.564C22.2773 105.988 22.3933 106.5 22.3933 107.1V111H21.0373V107.304C21.0373 106.712 20.8893 106.26 20.5933 105.948C20.2973 105.628 19.8933 105.468 19.3813 105.468C18.8693 105.468 18.4613 105.628 18.1573 105.948C17.8613 106.26 17.7133 106.712 17.7133 107.304V111H16.3453V104.388H17.7133V105.144C17.9373 104.872 18.2213 104.66 18.5653 104.508C18.9173 104.356 19.2893 104.28 19.6813 104.28ZM30.1983 107.532C30.1983 107.78 30.1823 108.004 30.1503 108.204H25.0983C25.1383 108.732 25.3343 109.156 25.6863 109.476C26.0383 109.796 26.4703 109.956 26.9823 109.956C27.7183 109.956 28.2383 109.648 28.5423 109.032H30.0183C29.8183 109.64 29.4543 110.14 28.9263 110.532C28.4063 110.916 27.7583 111.108 26.9823 111.108C26.3503 111.108 25.7823 110.968 25.2783 110.688C24.7823 110.4 24.3903 110 24.1023 109.488C23.8223 108.968 23.6823 108.368 23.6823 107.688C23.6823 107.008 23.8183 106.412 24.0903 105.9C24.3703 105.38 24.7583 104.98 25.2543 104.7C25.7583 104.42 26.3343 104.28 26.9823 104.28C27.6063 104.28 28.1623 104.416 28.6503 104.688C29.1383 104.96 29.5183 105.344 29.7903 105.84C30.0623 106.328 30.1983 106.892 30.1983 107.532ZM28.7703 107.1C28.7623 106.596 28.5823 106.192 28.2303 105.888C27.8783 105.584 27.4423 105.432 26.9223 105.432C26.4503 105.432 26.0463 105.584 25.7103 105.888C25.3743 106.184 25.1743 106.588 25.1103 107.1H28.7703ZM39.5485 104.28C40.0685 104.28 40.5325 104.388 40.9405 104.604C41.3565 104.82 41.6805 105.14 41.9125 105.564C42.1525 105.988 42.2725 106.5 42.2725 107.1V111H40.9165V107.304C40.9165 106.712 40.7685 106.26 40.4725 105.948C40.1765 105.628 39.7725 105.468 39.2605 105.468C38.7485 105.468 38.3405 105.628 38.0365 105.948C37.7405 106.26 37.5925 106.712 37.5925 107.304V111H36.2365V107.304C36.2365 106.712 36.0885 106.26 35.7925 105.948C35.4965 105.628 35.0925 105.468 34.5805 105.468C34.0685 105.468 33.6605 105.628 33.3565 105.948C33.0605 106.26 32.9125 106.712 32.9125 107.304V111H31.5445V104.388H32.9125V105.144C33.1365 104.872 33.4205 104.66 33.7645 104.508C34.1085 104.356 34.4765 104.28 34.8685 104.28C35.3965 104.28 35.8685 104.392 36.2845 104.616C36.7005 104.84 37.0205 105.164 37.2445 105.588C37.4445 105.188 37.7565 104.872 38.1805 104.64C38.6045 104.4 39.0605 104.28 39.5485 104.28ZM43.5573 107.664C43.5573 107 43.6933 106.412 43.9653 105.9C44.2453 105.388 44.6213 104.992 45.0933 104.712C45.5733 104.424 46.1013 104.28 46.6773 104.28C47.1973 104.28 47.6493 104.384 48.0333 104.592C48.4253 104.792 48.7373 105.044 48.9693 105.348V104.388H50.3493V111H48.9693V110.016C48.7373 110.328 48.4213 110.588 48.0213 110.796C47.6213 111.004 47.1653 111.108 46.6533 111.108C46.0853 111.108 45.5653 110.964 45.0933 110.676C44.6213 110.38 44.2453 109.972 43.9653 109.452C43.6933 108.924 43.5573 108.328 43.5573 107.664ZM48.9693 107.688C48.9693 107.232 48.8733 106.836 48.6813 106.5C48.4973 106.164 48.2533 105.908 47.9493 105.732C47.6453 105.556 47.3173 105.468 46.9653 105.468C46.6133 105.468 46.2853 105.556 45.9813 105.732C45.6773 105.9 45.4293 106.152 45.2373 106.488C45.0533 106.816 44.9613 107.208 44.9613 107.664C44.9613 108.12 45.0533 108.52 45.2373 108.864C45.4293 109.208 45.6773 109.472 45.9813 109.656C46.2933 109.832 46.6213 109.92 46.9653 109.92C47.3173 109.92 47.6453 109.832 47.9493 109.656C48.2533 109.48 48.4973 109.224 48.6813 108.888C48.8733 108.544 48.9693 108.144 48.9693 107.688ZM54.5461 111.108C54.0261 111.108 53.5581 111.016 53.1421 110.832C52.7341 110.64 52.4101 110.384 52.1701 110.064C51.9301 109.736 51.8021 109.372 51.7861 108.972H53.2021C53.2261 109.252 53.3581 109.488 53.5981 109.68C53.8461 109.864 54.1541 109.956 54.5221 109.956C54.9061 109.956 55.2021 109.884 55.4101 109.74C55.6261 109.588 55.7341 109.396 55.7341 109.164C55.7341 108.916 55.6141 108.732 55.3741 108.612C55.1421 108.492 54.7701 108.36 54.2581 108.216C53.7621 108.08 53.3581 107.948 53.0461 107.82C52.7341 107.692 52.4621 107.496 52.2301 107.232C52.0061 106.968 51.8941 106.62 51.8941 106.188C51.8941 105.836 51.9981 105.516 52.2061 105.228C52.4141 104.932 52.7101 104.7 53.0941 104.532C53.4861 104.364 53.9341 104.28 54.4381 104.28C55.1901 104.28 55.7941 104.472 56.2501 104.856C56.7141 105.232 56.9621 105.748 56.9941 106.404H55.6261C55.6021 106.108 55.4821 105.872 55.2661 105.696C55.0501 105.52 54.7581 105.432 54.3901 105.432C54.0301 105.432 53.7541 105.5 53.5621 105.636C53.3701 105.772 53.2741 105.952 53.2741 106.176C53.2741 106.352 53.3381 106.5 53.4661 106.62C53.5941 106.74 53.7501 106.836 53.9341 106.908C54.1181 106.972 54.3901 107.056 54.7501 107.16C55.2301 107.288 55.6221 107.42 55.9261 107.556C56.2381 107.684 56.5061 107.876 56.7301 108.132C56.9541 108.388 57.0701 108.728 57.0781 109.152C57.0781 109.528 56.9741 109.864 56.7661 110.16C56.5581 110.456 56.2621 110.688 55.8781 110.856C55.5021 111.024 55.0581 111.108 54.5461 111.108ZM68.5254 111H67.1574L63.0414 104.772V111H61.6734V102.648H63.0414L67.1574 108.864V102.648H68.5254V111ZM74.1259 111.084C73.3499 111.084 72.6339 110.904 71.9779 110.544C71.3299 110.176 70.8139 109.668 70.4299 109.02C70.0539 108.364 69.8659 107.628 69.8659 106.812C69.8659 105.996 70.0539 105.264 70.4299 104.616C70.8139 103.968 71.3299 103.464 71.9779 103.104C72.6339 102.736 73.3499 102.552 74.1259 102.552C74.9099 102.552 75.6259 102.736 76.2739 103.104C76.9299 103.464 77.4459 103.968 77.8219 104.616C78.1979 105.264 78.3859 105.996 78.3859 106.812C78.3859 107.628 78.1979 108.364 77.8219 109.02C77.4459 109.668 76.9299 110.176 76.2739 110.544C75.6259 110.904 74.9099 111.084 74.1259 111.084ZM74.1259 109.896C74.6779 109.896 75.1699 109.772 75.6019 109.524C76.0339 109.268 76.3699 108.908 76.6099 108.444C76.8579 107.972 76.9819 107.428 76.9819 106.812C76.9819 106.196 76.8579 105.656 76.6099 105.192C76.3699 104.728 76.0339 104.372 75.6019 104.124C75.1699 103.876 74.6779 103.752 74.1259 103.752C73.5739 103.752 73.0819 103.876 72.6499 104.124C72.2179 104.372 71.8779 104.728 71.6299 105.192C71.3899 105.656 71.2699 106.196 71.2699 106.812C71.2699 107.428 71.3899 107.972 71.6299 108.444C71.8779 108.908 72.2179 109.268 72.6499 109.524C73.0819 109.772 73.5739 109.896 74.1259 109.896ZM82.48 111.084C81.92 111.084 81.416 110.988 80.968 110.796C80.52 110.596 80.168 110.316 79.912 109.956C79.656 109.596 79.528 109.176 79.528 108.696H80.992C81.024 109.056 81.164 109.352 81.412 109.584C81.668 109.816 82.024 109.932 82.48 109.932C82.952 109.932 83.32 109.82 83.584 109.596C83.848 109.364 83.98 109.068 83.98 108.708C83.98 108.428 83.896 108.2 83.728 108.024C83.568 107.848 83.364 107.712 83.116 107.616C82.876 107.52 82.54 107.416 82.108 107.304C81.564 107.16 81.12 107.016 80.776 106.872C80.44 106.72 80.152 106.488 79.912 106.176C79.672 105.864 79.552 105.448 79.552 104.928C79.552 104.448 79.672 104.028 79.912 103.668C80.152 103.308 80.488 103.032 80.92 102.84C81.352 102.648 81.852 102.552 82.42 102.552C83.228 102.552 83.888 102.756 84.4 103.164C84.92 103.564 85.208 104.116 85.264 104.82H83.752C83.728 104.516 83.584 104.256 83.32 104.04C83.056 103.824 82.708 103.716 82.276 103.716C81.884 103.716 81.564 103.816 81.316 104.016C81.068 104.216 80.944 104.504 80.944 104.88C80.944 105.136 81.02 105.348 81.172 105.516C81.332 105.676 81.532 105.804 81.772 105.9C82.012 105.996 82.34 106.1 82.756 106.212C83.308 106.364 83.756 106.516 84.1 106.668C84.452 106.82 84.748 107.056 84.988 107.376C85.236 107.688 85.36 108.108 85.36 108.636C85.36 109.06 85.244 109.46 85.012 109.836C84.788 110.212 84.456 110.516 84.016 110.748C83.584 110.972 83.072 111.084 82.48 111.084Z" fill="#2B2B2B"/>
<circle cx="45" cy="45" r="45" fill="#2B2B2B"/>
<path d="M25.0032 46.0489C24.2868 45.1 23.6196 44.1791 22.9383 43.2232L22.9102 43.2372C22.9242 44.2768 22.9383 45.3372 22.9383 46.3908V50.4514H20.6064V39.5254H22.8891L26.1902 43.9348C26.9066 44.8837 27.5739 45.8047 28.2552 46.7606L28.2832 46.7466C28.2692 45.707 28.2552 44.6465 28.2552 43.593V39.5254H30.58V50.4584H28.2973L25.0032 46.0489Z" fill="white"/>
<path d="M58.976 47.4378C60.163 48.1913 61.5607 48.5262 62.4245 48.5262C63.3095 48.5262 63.9627 48.1774 63.9627 47.3611C63.9627 46.3494 62.9302 46.2587 61.5185 45.8052C60.0014 45.3098 58.6318 44.5702 58.6318 42.6655C58.6318 40.6282 60.184 39.3584 62.4948 39.3584C63.5764 39.3584 64.8969 39.6305 65.8521 40.1468V42.519C64.6791 41.7934 63.3306 41.4585 62.4737 41.4585C61.6519 41.4585 61.062 41.7585 61.062 42.4841C61.062 43.4539 62.0804 43.5237 63.4008 43.9633C65.0584 44.5074 66.3929 45.2749 66.3929 47.2076C66.3929 49.3355 64.7634 50.6193 62.3965 50.6193C61.3008 50.6193 59.9804 50.3472 58.976 49.8518V47.4378Z" fill="white"/>
<path d="M44.1779 32.7856L42.8926 32.9322L43.6301 38.0882C43.9531 38.0324 44.2832 37.9975 44.6133 37.9835L44.1779 32.7856Z" fill="white"/>
<path d="M41.5434 33.2251L40.3213 33.6367L42.1474 38.5206C42.4495 38.3951 42.7655 38.2834 43.0816 38.1997L41.5434 33.2251Z" fill="white"/>
<path d="M39.0929 34.2021L37.9902 34.865L40.8348 39.2605C41.1017 39.0721 41.3826 38.8977 41.6776 38.7512L39.0929 34.2021Z" fill="white"/>
<path d="M40.4129 39.5742L36.8941 35.688L35.96 36.5741L39.7036 40.251C39.9212 40.0138 40.1601 39.7835 40.4129 39.5742Z" fill="white"/>
<path d="M35.0611 37.6274L34.3447 38.6949L38.7977 41.4788C38.9592 41.1927 39.1489 40.9206 39.3526 40.6625L35.0611 37.6274Z" fill="white"/>
<path d="M38.2009 42.8399C38.2992 42.526 38.4256 42.219 38.5661 41.9259L33.7198 39.8677C33.7198 39.8747 33.7128 39.8747 33.7128 39.8816L33.2422 41.0608L38.2009 42.8399Z" fill="white"/>
<path d="M45.2941 37.9836C45.3925 37.9906 45.4978 37.9976 45.6032 38.0115C45.7787 38.0255 45.9543 38.0534 46.1229 38.0813L46.8604 32.8974C46.8394 32.8974 46.8183 32.8904 46.7972 32.8834L45.8069 32.7718C45.7296 32.7648 45.6523 32.7648 45.5821 32.7578L45.1396 37.9697L45.2941 37.9836Z" fill="white"/>
<path d="M49.4384 33.6021L48.2163 33.1904L46.6641 38.193C46.9871 38.2767 47.2962 38.3813 47.5982 38.507L49.4384 33.6021Z" fill="white"/>
<path d="M48.9182 39.2255L51.7698 34.823L50.6882 34.1741C50.6812 34.1671 50.6741 34.1671 50.6671 34.1602L48.0684 38.7232C48.3633 38.8697 48.6513 39.0371 48.9182 39.2255Z" fill="white"/>
<path d="M50.0632 40.2163L53.7998 36.5394L52.8656 35.6533L49.3398 39.5395C49.5927 39.7489 49.8385 39.9721 50.0632 40.2163Z" fill="white"/>
<path d="M55.4149 38.6534L54.6985 37.5859L50.4141 40.614C50.6178 40.8721 50.8074 41.1442 50.976 41.4233L55.4149 38.6534Z" fill="white"/>
<path d="M56.5177 41.0256L56.0471 39.8325L51.2148 41.8768C51.3623 42.1698 51.4818 42.4768 51.5871 42.7908L56.5177 41.0256Z" fill="white"/>
<path d="M57.1082 43.6071L56.9045 42.3442L51.7422 43.3279C51.8194 43.6419 51.8756 43.9699 51.9037 44.2978L57.1082 43.6071Z" fill="white"/>
<path d="M51.9525 44.9603C51.9525 45.0649 51.9525 45.1765 51.9455 45.2952C51.9384 45.4068 51.9314 45.5184 51.9174 45.637L51.9033 45.7905L57.1359 46.2301C57.178 45.8115 57.1991 45.3858 57.1991 44.9533C57.1991 44.9533 57.1991 44.9533 57.1991 44.9463L51.9525 44.7998V44.9603Z" fill="white"/>
<path d="M51.7775 46.489C51.7564 46.5936 51.7283 46.6983 51.7002 46.8099C51.6721 46.9146 51.637 47.0262 51.6019 47.1378L51.5527 47.2843L56.5816 48.7984C56.7151 48.3937 56.8274 47.9821 56.9187 47.5634L51.8126 46.3354L51.7775 46.489Z" fill="white"/>
<path d="M55.4505 51.2261L56.0545 50.0958L51.3347 47.7725C51.2012 48.0725 51.0467 48.3655 50.8711 48.6376L55.4505 51.2261Z" fill="white"/>
<path d="M49.9229 49.8374L53.8561 53.3259C53.8772 53.305 53.8982 53.277 53.9263 53.2561L54.6708 52.384C54.6778 52.3701 54.6849 52.3631 54.6989 52.3491L50.5761 49.0908C50.3723 49.356 50.1546 49.6071 49.9229 49.8374Z" fill="white"/>
<path d="M32.8414 42.5327L32.6939 43.4397C32.6869 43.4955 32.6799 43.5443 32.6729 43.6002L37.8844 44.2909L37.8984 44.1374C37.9124 44.0188 37.9265 43.9072 37.9475 43.7956C37.9686 43.6839 37.9897 43.5723 38.0108 43.4676L38.0389 43.349L32.8836 42.3652C32.8695 42.4211 32.8555 42.4769 32.8414 42.5327Z" fill="white"/>
<path d="M37.8843 45.6511C37.8703 45.5324 37.8632 45.4208 37.8562 45.3092C37.8492 45.1905 37.8492 45.079 37.8492 44.9743V44.8208L32.6025 44.9673C32.6025 45.3999 32.6236 45.8255 32.6728 46.2441L37.9054 45.8046L37.8843 45.6511Z" fill="white"/>
<path d="M38.1656 47.13C38.1304 47.0184 38.0953 46.9067 38.0672 46.8021C38.0391 46.6904 38.011 46.5788 37.99 46.4811L37.9549 46.3276L32.8838 47.5417C32.9751 47.9602 33.0875 48.3719 33.2209 48.7766L38.2147 47.2765L38.1656 47.13Z" fill="white"/>
<path d="M38.8185 48.4979C38.7553 48.3932 38.6991 48.2956 38.6499 48.1979C38.5937 48.0932 38.5446 47.9956 38.5024 47.8979L38.4392 47.7583L33.7334 50.0677C33.916 50.4584 34.1127 50.8352 34.3374 51.198L38.9028 48.6235L38.8185 48.4979Z" fill="white"/>
<path d="M39.7315 49.7122C39.6472 49.6215 39.5769 49.5378 39.4997 49.454C39.4224 49.3633 39.3522 49.2796 39.289 49.1959L39.1977 49.0703L35.0889 52.3146C35.3487 52.6565 35.6227 52.9844 35.9177 53.2914L39.8368 49.8168L39.7315 49.7122Z" fill="white"/>
<path d="M41.4732 51.0513L39.1133 55.7329C39.1414 55.7468 39.1694 55.7608 39.1976 55.7747L40.2581 56.2631C40.2651 56.2631 40.2721 56.2701 40.2792 56.2701L42.3652 51.4629C42.0561 51.3513 41.7611 51.2117 41.4732 51.0513Z" fill="white"/>
<path d="M40.8904 50.7027C40.7921 50.6329 40.7008 50.5701 40.6095 50.5003C40.5181 50.4306 40.4268 50.3608 40.3496 50.291L40.2302 50.1934L36.915 54.254C37.0344 54.3586 37.1609 54.4563 37.2873 54.554L37.5683 54.7633C37.6876 54.854 37.8141 54.9447 37.9405 55.0284L41.0169 50.7864L40.8904 50.7027Z" fill="white"/>
<path d="M43.6722 51.8466C43.5528 51.8257 43.4404 51.8047 43.335 51.7838C43.2227 51.7559 43.1103 51.728 43.012 51.7001L42.8644 51.6582L41.5791 56.7166C41.9935 56.8282 42.4079 56.9259 42.8364 56.9957L43.8267 51.8675L43.6722 51.8466Z" fill="white"/>
<path d="M45.2521 51.9308C45.1326 51.9377 45.0203 51.9377 44.9079 51.9377C44.7885 51.9377 44.6761 51.9377 44.5708 51.9308H44.5567C44.5357 51.9308 44.5146 51.9308 44.4935 51.9308L44.4092 51.9238L44.2617 57.1566C44.3319 57.1636 44.4022 57.1636 44.4795 57.1636H45.3153C45.3925 57.1636 45.4768 57.1566 45.5541 57.1566L45.3995 51.9238L45.2521 51.9308Z" fill="white"/>
<path d="M46.8746 51.6582C46.5585 51.7489 46.2354 51.8187 45.9053 51.8675L46.8746 57.0166C46.8816 57.0166 46.8816 57.0166 46.8886 57.0166L48.1388 56.7445L46.8746 51.6582Z" fill="white"/>
<path d="M48.1386 51.149C48.1386 51.156 48.1386 51.156 48.1386 51.149C48.1176 51.163 48.1035 51.1699 48.0825 51.1769C47.9912 51.2258 47.9069 51.2676 47.8226 51.3025C47.7172 51.3514 47.6119 51.3932 47.5135 51.4351L47.373 51.4909L49.4802 56.2841C49.5785 56.2423 49.6768 56.2004 49.7752 56.1585L50.4986 55.8166C50.5477 55.7888 50.5969 55.7678 50.6461 55.7399L48.258 51.0723C48.2299 51.1072 48.1878 51.1281 48.1386 51.149Z" fill="white"/>
<path d="M49.4241 50.3189C49.3328 50.3956 49.2415 50.4654 49.1572 50.5352C49.0659 50.6049 48.9746 50.6747 48.8833 50.7305L48.7568 50.8212L51.8402 55.0423C52.1984 54.7981 52.5355 54.54 52.8656 54.2609L49.5365 50.2212L49.4241 50.3189Z" fill="white"/>
</svg>
