<svg width="16" height="16" viewBox="0 0 16 16" fill="none" xmlns="http://www.w3.org/2000/svg">
<g clip-path="url(#clip0_760_28115)">
<path opacity="0.2" d="M2.80566 5.0625H12.9307V15.1875H2.80566V5.0625Z" fill="#018EAA"/>
<path d="M15.1877 2.25H5.05566C4.90648 2.25 4.76341 2.30926 4.65792 2.41475C4.55243 2.52024 4.49316 2.66332 4.49316 2.8125C4.49316 2.96168 4.55243 3.10476 4.65792 3.21025C4.76341 3.31574 4.90648 3.375 5.05566 3.375H14.6252V12.9375C14.6252 13.0867 14.6845 13.2298 14.79 13.3352C14.8954 13.4407 15.0385 13.5 15.1877 13.5C15.3369 13.5 15.48 13.4407 15.5854 13.3352C15.6909 13.2298 15.7502 13.0867 15.7502 12.9375V2.8125C15.7502 2.66332 15.6909 2.52024 15.5854 2.41475C15.48 2.30926 15.3369 2.25 15.1877 2.25Z" fill="#018EAA"/>
<path d="M12.9377 4.5H2.80566C2.65648 4.5 2.51341 4.55926 2.40792 4.66475C2.30243 4.77024 2.24316 4.91332 2.24316 5.0625V15.1875C2.24316 15.3367 2.30243 15.4798 2.40792 15.5852C2.51341 15.6907 2.65648 15.75 2.80566 15.75H12.9377C13.0869 15.75 13.23 15.6907 13.3354 15.5852C13.4409 15.4798 13.5002 15.3367 13.5002 15.1875V5.0625C13.5002 4.91332 13.4409 4.77024 13.3354 4.66475C13.23 4.55926 13.0869 4.5 12.9377 4.5ZM12.3752 14.625H3.36816V5.625H12.3752V14.625Z" fill="#018EAA"/>
</g>
<defs>
<clipPath id="clip0_760_28115">
<rect width="16" height="16" fill="white"/>
</clipPath>
</defs>
</svg>
