<svg width="24" height="24" viewBox="0 0 24 24" fill="none" xmlns="http://www.w3.org/2000/svg">
<g clip-path="url(#clip0_843_3957)">
<path d="M15.4031 16.6126C16.0973 15.9359 16.5739 15.0675 16.7721 14.1185C16.9702 13.1696 16.881 12.183 16.5157 11.2851C16.1504 10.3871 15.5256 9.61837 14.7213 9.07722C13.9169 8.53607 12.9695 8.24702 12 8.24702C11.0306 8.24702 10.0831 8.53607 9.27876 9.07722C8.4744 9.61837 7.84965 10.3871 7.48435 11.2851C7.11905 12.183 7.02978 13.1696 7.22795 14.1185C7.42612 15.0675 7.90273 15.9359 8.59688 16.6126C7.28898 17.3177 6.23613 18.4165 5.58751 19.7533C5.45573 20.0218 5.43602 20.3317 5.53272 20.6147C5.62942 20.8978 5.8346 21.1308 6.10313 21.2626C6.37166 21.3944 6.68155 21.4141 6.96461 21.3174C7.24767 21.2207 7.48073 21.0155 7.61251 20.747C8.0117 19.9228 8.63498 19.2277 9.41095 18.7413C10.1869 18.2549 11.0842 17.997 12 17.997C12.9158 17.997 13.8131 18.2549 14.5891 18.7413C15.365 19.2277 15.9883 19.9228 16.3875 20.747C16.4805 20.936 16.6248 21.0951 16.8038 21.2061C16.9828 21.3172 17.1894 21.3757 17.4 21.3751C17.5688 21.3738 17.7352 21.3354 17.8875 21.2626C18.0215 21.1985 18.1416 21.1085 18.2406 20.9977C18.3397 20.887 18.4158 20.7577 18.4646 20.6174C18.5134 20.477 18.5339 20.3284 18.525 20.1801C18.5161 20.0318 18.4778 19.8867 18.4125 19.7533C17.7639 18.4165 16.711 17.3177 15.4031 16.6126ZM9.37501 13.1251C9.37501 12.606 9.52896 12.0984 9.8174 11.6668C10.1058 11.2351 10.5158 10.8986 10.9955 10.6999C11.4751 10.5013 12.0029 10.4493 12.5121 10.5506C13.0213 10.6519 13.4891 10.9019 13.8562 11.269C14.2233 11.6361 14.4733 12.1038 14.5746 12.613C14.6759 13.1222 14.6239 13.65 14.4252 14.1297C14.2265 14.6093 13.8901 15.0193 13.4584 15.3077C13.0267 15.5962 12.5192 15.7501 12 15.7501C11.3046 15.7477 10.6383 15.4703 10.1466 14.9786C9.65484 14.4868 9.37748 13.8206 9.37501 13.1251V13.1251ZM23.55 14.0251C23.3113 14.2042 23.0113 14.281 22.7159 14.2388C22.4205 14.1966 22.154 14.0388 21.975 13.8001C21.6226 13.3256 21.1791 12.9261 20.6704 12.6251C20.1617 12.324 19.5981 12.1275 19.0125 12.047C18.7903 12.0137 18.5831 11.9147 18.4177 11.7627C18.2523 11.6106 18.1362 11.4125 18.0844 11.1939C18.0646 11.1517 18.0489 11.1078 18.0375 11.0626C17.9995 10.9198 17.9903 10.7708 18.0104 10.6244C18.0304 10.478 18.0794 10.337 18.1544 10.2096C18.2294 10.0823 18.329 9.97113 18.4473 9.88259C18.5657 9.79405 18.7004 9.7299 18.8438 9.69388C19.1483 9.61409 19.4279 9.4589 19.6567 9.24262C19.8854 9.02634 20.0561 8.75593 20.1528 8.45633C20.2496 8.15674 20.2693 7.83761 20.2103 7.52837C20.1512 7.21912 20.0152 6.92973 19.8149 6.68688C19.6145 6.44403 19.3563 6.25554 19.0639 6.13879C18.7715 6.02204 18.4544 5.98079 18.1419 6.01885C17.8294 6.05691 17.5315 6.17305 17.2757 6.35656C17.0198 6.54007 16.8143 6.78504 16.6781 7.06888C16.6223 7.21344 16.5372 7.3449 16.4282 7.45502C16.3191 7.56515 16.1885 7.65156 16.0445 7.70884C15.9005 7.76612 15.7463 7.79303 15.5914 7.78789C15.4365 7.78275 15.2844 7.74567 15.1445 7.67897C15.0046 7.61227 14.88 7.51739 14.7785 7.40028C14.677 7.28317 14.6008 7.14635 14.5547 6.99841C14.5086 6.85047 14.4935 6.6946 14.5104 6.54056C14.5274 6.38652 14.576 6.23764 14.6531 6.10326C14.9042 5.5731 15.2654 5.10259 15.7127 4.72311C16.16 4.34363 16.6831 4.06392 17.2471 3.90263C17.8111 3.74135 18.403 3.70221 18.9833 3.78782C19.5636 3.87343 20.119 4.08183 20.6124 4.3991C21.1058 4.71637 21.5258 5.13522 21.8445 5.6277C22.1632 6.12018 22.3731 6.67497 22.4604 7.25503C22.5476 7.8351 22.5102 8.4271 22.3505 8.99154C22.1908 9.55598 21.9126 10.0799 21.5344 10.5283C22.4155 10.9934 23.1812 11.6501 23.775 12.4501C23.8637 12.5683 23.9282 12.7028 23.9648 12.8459C24.0015 12.989 24.0096 13.138 23.9887 13.2842C23.9678 13.4305 23.9183 13.5712 23.8431 13.6983C23.7678 13.8254 23.6682 13.9365 23.55 14.0251V14.0251ZM4.98751 12.047C4.40193 12.1275 3.83829 12.324 3.3296 12.6251C2.82091 12.9261 2.37739 13.3256 2.02501 13.8001C1.91923 13.9388 1.78314 14.0514 1.62715 14.1294C1.47116 14.2074 1.2994 14.2487 1.12501 14.2501C0.881806 14.2488 0.645361 14.17 0.450005 14.0251C0.21131 13.8461 0.0535071 13.5796 0.0113114 13.2842C-0.0308843 12.9889 0.0459835 12.6888 0.225005 12.4501C0.818856 11.6501 1.58451 10.9934 2.46563 10.5283C2.08742 10.0799 1.8092 9.55598 1.64952 8.99154C1.48984 8.4271 1.45238 7.8351 1.53964 7.25503C1.6269 6.67497 1.83687 6.12018 2.15554 5.6277C2.47421 5.13522 2.89426 4.71637 3.38764 4.3991C3.88103 4.08183 4.4364 3.87343 5.01671 3.78782C5.59703 3.70221 6.18892 3.74135 6.75291 3.90263C7.31689 4.06392 7.83999 4.34363 8.2873 4.72311C8.73461 5.10259 9.09584 5.5731 9.34688 6.10326C9.42406 6.23764 9.47264 6.38652 9.48957 6.54056C9.50651 6.6946 9.49144 6.85047 9.44531 6.99841C9.39918 7.14635 9.32298 7.28317 9.22149 7.40028C9.12 7.51739 8.99541 7.61227 8.85553 7.67897C8.71566 7.74567 8.56351 7.78275 8.40863 7.78789C8.25375 7.79303 8.09947 7.76612 7.95548 7.70884C7.81149 7.65156 7.68088 7.56515 7.57185 7.45502C7.46282 7.3449 7.37772 7.21344 7.32188 7.06888C7.18567 6.78504 6.98018 6.54007 6.72437 6.35656C6.46855 6.17305 6.17064 6.05691 5.85812 6.01885C5.5456 5.98079 5.22852 6.02204 4.93614 6.13879C4.64376 6.25554 4.38548 6.44403 4.18513 6.68688C3.98477 6.92973 3.8488 7.21912 3.78974 7.52837C3.73068 7.83761 3.75044 8.15674 3.84719 8.45633C3.94395 8.75593 4.11459 9.02634 4.34337 9.24262C4.57215 9.4589 4.85171 9.61409 5.15626 9.69388C5.2996 9.7299 5.43436 9.79405 5.5527 9.88259C5.67104 9.97113 5.77061 10.0823 5.84562 10.2096C5.92064 10.337 5.9696 10.478 5.98966 10.6244C6.00973 10.7708 6.0005 10.9198 5.96251 11.0626C5.9511 11.1078 5.9354 11.1517 5.91563 11.1939C5.86381 11.4125 5.74771 11.6106 5.58229 11.7627C5.41687 11.9147 5.20972 12.0137 4.98751 12.047V12.047Z" fill="#018EAA"/>
</g>
<defs>
<clipPath id="clip0_843_3957">
<rect width="24" height="24" fill="white"/>
</clipPath>
</defs>
</svg>
