<svg width="16" height="16" viewBox="0 0 16 16" fill="none" xmlns="http://www.w3.org/2000/svg">
<g clip-path="url(#clip0_760_27718)">
<path d="M10.2688 11.0749C10.7315 10.6238 11.0493 10.0449 11.1814 9.4122C11.3135 8.77955 11.254 8.12187 11.0104 7.52321C10.7669 6.92454 10.3504 6.41209 9.81418 6.05132C9.27794 5.69055 8.64631 5.49785 8.00001 5.49785C7.3537 5.49785 6.72208 5.69055 6.18584 6.05132C5.6496 6.41209 5.2331 6.92454 4.98957 7.52321C4.74603 8.12187 4.68652 8.77955 4.81863 9.4122C4.95075 10.0449 5.26849 10.6238 5.73126 11.0749C4.85932 11.545 4.15742 12.2775 3.72501 13.1687C3.63715 13.3477 3.62401 13.5543 3.68848 13.743C3.75294 13.9317 3.88973 14.0871 4.06876 14.1749C4.24778 14.2628 4.45436 14.2759 4.64307 14.2114C4.83178 14.147 4.98715 14.0102 5.07501 13.8312C5.34113 13.2817 5.75665 12.8183 6.27397 12.494C6.79128 12.1698 7.38947 11.9978 8.00001 11.9978C8.61054 11.9978 9.20873 12.1698 9.72605 12.494C10.2434 12.8183 10.6589 13.2817 10.925 13.8312C10.987 13.9572 11.0832 14.0632 11.2025 14.1372C11.3219 14.2113 11.4596 14.2503 11.6 14.2499C11.7125 14.249 11.8235 14.2234 11.925 14.1749C12.0144 14.1322 12.0944 14.0722 12.1604 13.9983C12.2264 13.9245 12.2772 13.8383 12.3097 13.7447C12.3423 13.6512 12.356 13.5521 12.35 13.4532C12.344 13.3544 12.3186 13.2576 12.275 13.1687C11.8426 12.2775 11.1407 11.545 10.2688 11.0749ZM6.25001 8.74992C6.25001 8.40381 6.35264 8.06546 6.54493 7.77768C6.73723 7.48989 7.01054 7.26559 7.33031 7.13314C7.65008 7.00068 8.00195 6.96603 8.34142 7.03355C8.68088 7.10107 8.9927 7.26775 9.23745 7.51249C9.48219 7.75723 9.64886 8.06905 9.71638 8.40852C9.78391 8.74798 9.74925 9.09985 9.6168 9.41962C9.48434 9.73939 9.26004 10.0127 8.97226 10.205C8.68447 10.3973 8.34613 10.4999 8.00001 10.4999C7.53639 10.4983 7.09222 10.3134 6.76439 9.98554C6.43656 9.65771 6.25165 9.21355 6.25001 8.74992ZM15.7 9.34992C15.5409 9.46927 15.3409 9.52052 15.1439 9.49239C14.947 9.46426 14.7694 9.35905 14.65 9.19992C14.4151 8.88355 14.1194 8.61723 13.7803 8.41654C13.4412 8.21585 13.0654 8.08484 12.675 8.03117C12.5269 8.009 12.3888 7.94298 12.2785 7.84161C12.1682 7.74024 12.0908 7.60817 12.0563 7.46242C12.0431 7.43432 12.0326 7.40502 12.025 7.37492C11.9997 7.2797 11.9935 7.1804 12.0069 7.08278C12.0203 6.98516 12.0529 6.89117 12.1029 6.80627C12.1529 6.72137 12.2193 6.64726 12.2982 6.58823C12.3771 6.5292 12.4669 6.48644 12.5625 6.46243C12.7655 6.40923 12.9519 6.30577 13.1044 6.16158C13.257 6.01739 13.3707 5.83712 13.4352 5.63739C13.4997 5.43766 13.5129 5.22491 13.4735 5.01875C13.4342 4.81259 13.3435 4.61966 13.2099 4.45776C13.0764 4.29586 12.9042 4.17019 12.7093 4.09236C12.5143 4.01453 12.3029 3.98703 12.0946 4.0124C11.8863 4.03778 11.6876 4.1152 11.5171 4.23754C11.3466 4.35989 11.2096 4.5232 11.1188 4.71243C11.0815 4.8088 11.0248 4.89644 10.9521 4.96985C10.8794 5.04327 10.7924 5.10088 10.6964 5.13906C10.6004 5.17725 10.4975 5.19519 10.3943 5.19177C10.291 5.18834 10.1896 5.16362 10.0963 5.11915C10.0031 5.07468 9.92002 5.01143 9.85236 4.93336C9.7847 4.85528 9.7339 4.76407 9.70314 4.66545C9.67239 4.56682 9.66234 4.4629 9.67363 4.36021C9.68492 4.25752 9.71731 4.15826 9.76876 4.06868C9.93612 3.71524 10.1769 3.40156 10.4751 3.14858C10.7734 2.89559 11.1221 2.70911 11.4981 2.60159C11.8741 2.49407 12.2687 2.46798 12.6555 2.52505C13.0424 2.58213 13.4127 2.72106 13.7416 2.93257C14.0705 3.14408 14.3505 3.42332 14.563 3.75164C14.7754 4.07996 14.9154 4.44982 14.9736 4.83652C15.0318 5.22323 15.0068 5.6179 14.9003 5.9942C14.7939 6.37049 14.6084 6.71975 14.3563 7.01867C14.9437 7.32875 15.4541 7.76657 15.85 8.29992C15.9091 8.37872 15.9521 8.46838 15.9765 8.56379C16.001 8.6592 16.0064 8.75849 15.9925 8.85599C15.9785 8.95349 15.9455 9.04729 15.8954 9.13204C15.8452 9.21679 15.7788 9.29083 15.7 9.34992ZM3.32501 8.03117C2.93462 8.08484 2.55886 8.21585 2.21974 8.41654C1.88061 8.61723 1.58493 8.88355 1.35 9.19992C1.27948 9.29236 1.18876 9.36745 1.08477 9.41945C0.980774 9.47145 0.866267 9.49897 0.750004 9.49992C0.587871 9.49904 0.430241 9.4465 0.300003 9.34992C0.140873 9.23058 0.0356714 9.0529 0.00754095 8.85599C-0.0205895 8.65908 0.0306557 8.45905 0.150003 8.29992C0.545904 7.76657 1.05634 7.32875 1.64375 7.01867C1.39162 6.71975 1.20613 6.37049 1.09968 5.9942C0.993226 5.6179 0.968252 5.22323 1.02643 4.83652C1.0846 4.44982 1.22458 4.07996 1.43703 3.75164C1.64948 3.42332 1.9295 3.14408 2.25843 2.93257C2.58735 2.72106 2.9576 2.58213 3.34448 2.52505C3.73135 2.46798 4.12595 2.49407 4.50194 2.60159C4.87793 2.70911 5.22666 2.89559 5.52487 3.14858C5.82307 3.40156 6.06389 3.71524 6.23126 4.06868C6.28271 4.15826 6.31509 4.25752 6.32638 4.36021C6.33767 4.4629 6.32763 4.56682 6.29687 4.66545C6.26612 4.76407 6.21532 4.85528 6.14766 4.93336C6.08 5.01143 5.99694 5.07468 5.90369 5.11915C5.81044 5.16362 5.70901 5.18834 5.60575 5.19177C5.5025 5.19519 5.39965 5.17725 5.30365 5.13906C5.20766 5.10088 5.12059 5.04327 5.0479 4.96985C4.97522 4.89644 4.91848 4.8088 4.88126 4.71243C4.79045 4.5232 4.65346 4.35989 4.48291 4.23754C4.31237 4.1152 4.11376 4.03778 3.90541 4.0124C3.69707 3.98703 3.48568 4.01453 3.29076 4.09236C3.09584 4.17019 2.92365 4.29586 2.79008 4.45776C2.65652 4.61966 2.56586 4.81259 2.52649 5.01875C2.48712 5.22491 2.50029 5.43766 2.5648 5.63739C2.6293 5.83712 2.74306 6.01739 2.89558 6.16158C3.0481 6.30577 3.23447 6.40923 3.43751 6.46243C3.53307 6.48644 3.6229 6.5292 3.7018 6.58823C3.78069 6.64726 3.84707 6.72137 3.89708 6.80627C3.94709 6.89117 3.97973 6.98516 3.99311 7.08278C4.00649 7.1804 4.00033 7.2797 3.97501 7.37492C3.9674 7.40502 3.95693 7.43432 3.94376 7.46242C3.90921 7.60817 3.83181 7.74024 3.72153 7.84161C3.61125 7.94298 3.47314 8.009 3.32501 8.03117Z" fill="#018EAA"/>
</g>
<defs>
<clipPath id="clip0_760_27718">
<rect width="16" height="16" fill="white"/>
</clipPath>
</defs>
</svg>
