<svg width="50" height="50" viewBox="0 0 50 50" fill="none" xmlns="http://www.w3.org/2000/svg">
<rect width="50" height="50" rx="14" fill="#D9EEF2"/>
<path d="M40.5778 12.5473L32.3903 41.5942C32.2538 42.086 31.969 42.5239 31.5748 42.8482C31.1807 43.1725 30.6961 43.3675 30.1872 43.4067H29.9684C29.4976 43.4056 29.0365 43.2716 28.6385 43.02C28.2404 42.7685 27.9215 42.4096 27.7184 41.9848L22.1403 30.2035C22.0855 30.0852 22.0682 29.9531 22.0905 29.8246C22.1128 29.6962 22.1738 29.5776 22.2653 29.4848L30.2809 21.4692C30.4064 21.3555 30.5075 21.2174 30.578 21.0635C30.6486 20.9096 30.6871 20.7429 30.6912 20.5736C30.6954 20.4043 30.6651 20.236 30.6023 20.0787C30.5394 19.9215 30.4452 19.7787 30.3255 19.659C30.2058 19.5392 30.063 19.4451 29.9057 19.3822C29.7485 19.3193 29.5801 19.2891 29.4109 19.2932C29.2416 19.2974 29.0749 19.3359 28.921 19.4064C28.767 19.477 28.629 19.578 28.5153 19.7035L20.4997 27.7348C20.4068 27.8263 20.2883 27.8872 20.1598 27.9096C20.0314 27.9319 19.8992 27.9145 19.7809 27.8598L8.06219 22.3129C7.60352 22.0963 7.21845 21.7499 6.95462 21.3167C6.69079 20.8834 6.55978 20.3823 6.57781 19.8754C6.60547 19.3535 6.79704 18.8535 7.12526 18.4468C7.45348 18.04 7.90163 17.7471 8.40594 17.6098L37.5153 9.40665C38.0244 9.26125 38.5666 9.28126 39.0636 9.46379C39.5607 9.64631 39.9869 9.98193 40.2809 10.4223C40.4782 10.7352 40.6067 11.0865 40.6579 11.4529C40.7091 11.8192 40.6818 12.1923 40.5778 12.5473Z" fill="#018EAA"/>
</svg>
