<svg width="50" height="50" viewBox="0 0 50 50" fill="none" xmlns="http://www.w3.org/2000/svg">
<rect width="50" height="50" rx="14" fill="#D9EEF2"/>
<path d="M41.2499 25.0002V25.2345C41.1874 27.4689 40.3592 30.0002 36.8749 30.0002C33.3905 30.0002 32.4999 27.2814 32.4999 25.0002V18.7502C32.5002 18.5792 32.4655 18.41 32.3978 18.253C32.3302 18.0961 32.231 17.9546 32.1066 17.8375C31.9821 17.7203 31.8349 17.6299 31.6741 17.5719C31.5133 17.5139 31.3423 17.4895 31.1717 17.5002C30.8485 17.5278 30.5478 17.677 30.3303 17.9177C30.1128 18.1584 29.9947 18.4727 29.9999 18.797V19.422C28.6313 18.18 26.8479 17.4945 24.9999 17.5002C23.7169 17.4983 22.4548 17.8256 21.3344 18.4507C20.2141 19.0759 19.2728 19.978 18.6006 21.0709C17.9284 22.1637 17.5478 23.4107 17.4952 24.6926C17.4426 25.9745 17.7198 27.2485 18.3001 28.3928C18.8805 29.537 19.7447 30.5132 20.8101 31.2281C21.8755 31.9429 23.1064 32.3726 24.3853 32.4758C25.6641 32.5791 26.9481 32.3526 28.1144 31.8179C29.2807 31.2832 30.2903 30.4583 31.0467 29.422C31.2057 29.6943 31.3832 29.9554 31.578 30.2033C32.4217 31.2502 34.0155 32.5002 36.8749 32.5002C37.3568 32.5008 37.8378 32.459 38.3124 32.3752C38.4302 32.3552 38.5512 32.3694 38.6612 32.4161C38.7712 32.4628 38.8655 32.5401 38.9329 32.6387C39.0003 32.7374 39.0381 32.8533 39.0416 32.9728C39.0452 33.0922 39.0144 33.2102 38.953 33.3127C37.4855 35.779 35.391 37.8126 32.8825 39.2068C30.374 40.601 27.5411 41.306 24.6717 41.2502C16.1092 41.0783 9.09361 34.1877 8.76548 25.6408C8.67093 23.4761 9.01022 21.3144 9.76341 19.2828C10.5166 17.2513 11.6685 15.3908 13.1513 13.8109C14.634 12.2311 16.4178 10.9637 18.3976 10.0834C20.3774 9.20304 22.5133 8.72752 24.6796 8.6848C26.8459 8.64208 28.9988 9.03301 31.0118 9.83461C33.0248 10.6362 34.8572 11.8323 36.4011 13.3524C37.945 14.8726 39.1693 16.6862 40.002 18.6865C40.8347 20.6868 41.259 22.8335 41.2499 25.0002ZM19.9999 25.0002C19.9999 25.9891 20.2931 26.9558 20.8425 27.778C21.3919 28.6003 22.1728 29.2411 23.0864 29.6196C24.0001 29.998 25.0054 30.097 25.9753 29.9041C26.9452 29.7112 27.8361 29.235 28.5354 28.5357C29.2347 27.8364 29.7109 26.9455 29.9038 25.9756C30.0967 25.0057 29.9977 24.0004 29.6193 23.0867C29.2408 22.1731 28.6 21.3922 27.7777 20.8428C26.9555 20.2934 25.9888 20.0002 24.9999 20.0002C23.675 20.0043 22.4057 20.5324 21.4689 21.4692C20.5321 22.406 20.004 23.6753 19.9999 25.0002Z" fill="#018EAA"/>
</svg>
