<svg width="327" height="144" viewBox="0 0 327 144" fill="none" xmlns="http://www.w3.org/2000/svg">
<g clip-path="url(#clip0_999_4999)">
<rect width="327" height="144" rx="14" fill="url(#paint0_linear_999_4999)"/>
<path d="M20.926 30.81V33.26H24.216V34.814H20.926V37.404H24.636V39H18.966V29.214H24.636V30.81H20.926ZM29.3852 39.126C28.7505 39.126 28.1812 39.014 27.6772 38.79C27.1732 38.5567 26.7718 38.244 26.4732 37.852C26.1838 37.46 26.0252 37.026 25.9972 36.55H27.9712C28.0085 36.8487 28.1532 37.096 28.4052 37.292C28.6665 37.488 28.9885 37.586 29.3712 37.586C29.7445 37.586 30.0338 37.5113 30.2392 37.362C30.4538 37.2127 30.5612 37.0213 30.5612 36.788C30.5612 36.536 30.4305 36.3493 30.1692 36.228C29.9172 36.0973 29.5112 35.9573 28.9512 35.808C28.3725 35.668 27.8965 35.5233 27.5232 35.374C27.1592 35.2247 26.8418 34.996 26.5712 34.688C26.3098 34.38 26.1792 33.9647 26.1792 33.442C26.1792 33.0127 26.3005 32.6207 26.5432 32.266C26.7952 31.9113 27.1498 31.6313 27.6072 31.426C28.0738 31.2207 28.6198 31.118 29.2452 31.118C30.1692 31.118 30.9065 31.3513 31.4572 31.818C32.0078 32.2753 32.3112 32.896 32.3672 33.68H30.4912C30.4632 33.372 30.3325 33.1293 30.0992 32.952C29.8752 32.7653 29.5718 32.672 29.1892 32.672C28.8345 32.672 28.5592 32.7373 28.3632 32.868C28.1765 32.9987 28.0832 33.1807 28.0832 33.414C28.0832 33.6753 28.2138 33.876 28.4752 34.016C28.7365 34.1467 29.1425 34.282 29.6932 34.422C30.2532 34.562 30.7152 34.7067 31.0792 34.856C31.4432 35.0053 31.7558 35.2387 32.0172 35.556C32.2878 35.864 32.4278 36.2747 32.4372 36.788C32.4372 37.236 32.3112 37.6373 32.0592 37.992C31.8165 38.3467 31.4618 38.6267 30.9952 38.832C30.5378 39.028 30.0012 39.126 29.3852 39.126ZM33.5421 35.122C33.5421 34.3193 33.7054 33.6193 34.0321 33.022C34.3587 32.4153 34.8114 31.9487 35.3901 31.622C35.9687 31.286 36.6314 31.118 37.3781 31.118C38.3394 31.118 39.1327 31.3607 39.7581 31.846C40.3927 32.322 40.8174 32.994 41.0321 33.862H38.9181C38.8061 33.526 38.6147 33.2647 38.3441 33.078C38.0827 32.882 37.7561 32.784 37.3641 32.784C36.8041 32.784 36.3607 32.9893 36.0341 33.4C35.7074 33.8013 35.5441 34.3753 35.5441 35.122C35.5441 35.8593 35.7074 36.4333 36.0341 36.844C36.3607 37.2453 36.8041 37.446 37.3641 37.446C38.1574 37.446 38.6754 37.0913 38.9181 36.382H41.0321C40.8174 37.222 40.3927 37.8893 39.7581 38.384C39.1234 38.8787 38.3301 39.126 37.3781 39.126C36.6314 39.126 35.9687 38.9627 35.3901 38.636C34.8114 38.3 34.3587 37.8333 34.0321 37.236C33.7054 36.6293 33.5421 35.9247 33.5421 35.122ZM41.964 35.094C41.964 34.31 42.118 33.6147 42.426 33.008C42.7433 32.4013 43.168 31.9347 43.7 31.608C44.2413 31.2813 44.8433 31.118 45.506 31.118C46.0846 31.118 46.5886 31.2347 47.018 31.468C47.4566 31.7013 47.8066 31.9953 48.068 32.35V31.244H50.042V39H48.068V37.866C47.816 38.23 47.466 38.5333 47.018 38.776C46.5793 39.0093 46.0706 39.126 45.492 39.126C44.8386 39.126 44.2413 38.958 43.7 38.622C43.168 38.286 42.7433 37.8147 42.426 37.208C42.118 36.592 41.964 35.8873 41.964 35.094ZM48.068 35.122C48.068 34.646 47.9746 34.24 47.788 33.904C47.6013 33.5587 47.3493 33.2973 47.032 33.12C46.7146 32.9333 46.374 32.84 46.01 32.84C45.646 32.84 45.31 32.9287 45.002 33.106C44.694 33.2833 44.442 33.5447 44.246 33.89C44.0593 34.226 43.966 34.6273 43.966 35.094C43.966 35.5607 44.0593 35.9713 44.246 36.326C44.442 36.6713 44.694 36.9373 45.002 37.124C45.3193 37.3107 45.6553 37.404 46.01 37.404C46.374 37.404 46.7146 37.3153 47.032 37.138C47.3493 36.9513 47.6013 36.69 47.788 36.354C47.9746 36.0087 48.068 35.598 48.068 35.122ZM53.9162 32.364C54.1682 32.0093 54.5136 31.7153 54.9522 31.482C55.4002 31.2393 55.9089 31.118 56.4782 31.118C57.1409 31.118 57.7382 31.2813 58.2702 31.608C58.8116 31.9347 59.2362 32.4013 59.5442 33.008C59.8616 33.6053 60.0202 34.3007 60.0202 35.094C60.0202 35.8873 59.8616 36.592 59.5442 37.208C59.2362 37.8147 58.8116 38.286 58.2702 38.622C57.7382 38.958 57.1409 39.126 56.4782 39.126C55.9089 39.126 55.4049 39.0093 54.9662 38.776C54.5369 38.5427 54.1869 38.2487 53.9162 37.894V42.696H51.9562V31.244H53.9162V32.364ZM58.0182 35.094C58.0182 34.6273 57.9202 34.226 57.7242 33.89C57.5376 33.5447 57.2856 33.2833 56.9682 33.106C56.6602 32.9287 56.3242 32.84 55.9602 32.84C55.6056 32.84 55.2696 32.9333 54.9522 33.12C54.6442 33.2973 54.3922 33.5587 54.1962 33.904C54.0096 34.2493 53.9162 34.6553 53.9162 35.122C53.9162 35.5887 54.0096 35.9947 54.1962 36.34C54.3922 36.6853 54.6442 36.9513 54.9522 37.138C55.2696 37.3153 55.6056 37.404 55.9602 37.404C56.3242 37.404 56.6602 37.3107 56.9682 37.124C57.2856 36.9373 57.5376 36.6713 57.7242 36.326C57.9202 35.9807 58.0182 35.57 58.0182 35.094ZM60.9405 35.094C60.9405 34.31 61.0945 33.6147 61.4025 33.008C61.7198 32.4013 62.1445 31.9347 62.6765 31.608C63.2178 31.2813 63.8198 31.118 64.4825 31.118C65.0612 31.118 65.5652 31.2347 65.9945 31.468C66.4332 31.7013 66.7832 31.9953 67.0445 32.35V31.244H69.0185V39H67.0445V37.866C66.7925 38.23 66.4425 38.5333 65.9945 38.776C65.5558 39.0093 65.0472 39.126 64.4685 39.126C63.8152 39.126 63.2178 38.958 62.6765 38.622C62.1445 38.286 61.7198 37.8147 61.4025 37.208C61.0945 36.592 60.9405 35.8873 60.9405 35.094ZM67.0445 35.122C67.0445 34.646 66.9512 34.24 66.7645 33.904C66.5778 33.5587 66.3258 33.2973 66.0085 33.12C65.6912 32.9333 65.3505 32.84 64.9865 32.84C64.6225 32.84 64.2865 32.9287 63.9785 33.106C63.6705 33.2833 63.4185 33.5447 63.2225 33.89C63.0358 34.226 62.9425 34.6273 62.9425 35.094C62.9425 35.5607 63.0358 35.9713 63.2225 36.326C63.4185 36.6713 63.6705 36.9373 63.9785 37.124C64.2958 37.3107 64.6318 37.404 64.9865 37.404C65.3505 37.404 65.6912 37.3153 66.0085 37.138C66.3258 36.9513 66.5778 36.69 66.7645 36.354C66.9512 36.0087 67.0445 35.598 67.0445 35.122ZM70.4288 35.094C70.4288 34.31 70.5828 33.6147 70.8908 33.008C71.2081 32.4013 71.6375 31.9347 72.1788 31.608C72.7201 31.2813 73.3221 31.118 73.9848 31.118C74.4888 31.118 74.9695 31.23 75.4268 31.454C75.8841 31.6687 76.2481 31.958 76.5188 32.322V28.64H78.5068V39H76.5188V37.852C76.2761 38.2347 75.9355 38.5427 75.4968 38.776C75.0581 39.0093 74.5495 39.126 73.9708 39.126C73.3175 39.126 72.7201 38.958 72.1788 38.622C71.6375 38.286 71.2081 37.8147 70.8908 37.208C70.5828 36.592 70.4288 35.8873 70.4288 35.094ZM76.5328 35.122C76.5328 34.646 76.4395 34.24 76.2528 33.904C76.0661 33.5587 75.8141 33.2973 75.4968 33.12C75.1795 32.9333 74.8388 32.84 74.4748 32.84C74.1108 32.84 73.7748 32.9287 73.4668 33.106C73.1588 33.2833 72.9068 33.5447 72.7108 33.89C72.5241 34.226 72.4308 34.6273 72.4308 35.094C72.4308 35.5607 72.5241 35.9713 72.7108 36.326C72.9068 36.6713 73.1588 36.9373 73.4668 37.124C73.7841 37.3107 74.1201 37.404 74.4748 37.404C74.8388 37.404 75.1795 37.3153 75.4968 37.138C75.8141 36.9513 76.0661 36.69 76.2528 36.354C76.4395 36.0087 76.5328 35.598 76.5328 35.122ZM81.4151 30.32C81.0697 30.32 80.7804 30.2127 80.5471 29.998C80.3231 29.774 80.2111 29.4987 80.2111 29.172C80.2111 28.8453 80.3231 28.5747 80.5471 28.36C80.7804 28.136 81.0697 28.024 81.4151 28.024C81.7604 28.024 82.0451 28.136 82.2691 28.36C82.5024 28.5747 82.6191 28.8453 82.6191 29.172C82.6191 29.4987 82.5024 29.774 82.2691 29.998C82.0451 30.2127 81.7604 30.32 81.4151 30.32ZM82.3811 31.244V39H80.4211V31.244H82.3811ZM88.6156 31.132C89.5396 31.132 90.2862 31.426 90.8556 32.014C91.4249 32.5927 91.7096 33.4047 91.7096 34.45V39H89.7496V34.716C89.7496 34.1 89.5956 33.6287 89.2876 33.302C88.9796 32.966 88.5596 32.798 88.0276 32.798C87.4862 32.798 87.0569 32.966 86.7396 33.302C86.4316 33.6287 86.2776 34.1 86.2776 34.716V39H84.3176V31.244H86.2776V32.21C86.5389 31.874 86.8702 31.6127 87.2716 31.426C87.6822 31.23 88.1302 31.132 88.6156 31.132ZM97.9414 31.132C98.5294 31.132 99.0521 31.2627 99.5094 31.524C99.9668 31.776 100.321 32.154 100.573 32.658C100.835 33.1527 100.965 33.75 100.965 34.45V39H99.0054V34.716C99.0054 34.1 98.8514 33.6287 98.5434 33.302C98.2354 32.966 97.8154 32.798 97.2834 32.798C96.7421 32.798 96.3128 32.966 95.9954 33.302C95.6874 33.6287 95.5334 34.1 95.5334 34.716V39H93.5734V28.64H95.5334V32.21C95.7854 31.874 96.1214 31.6127 96.5414 31.426C96.9614 31.23 97.4281 31.132 97.9414 31.132ZM102.325 35.094C102.325 34.31 102.479 33.6147 102.787 33.008C103.105 32.4013 103.529 31.9347 104.061 31.608C104.603 31.2813 105.205 31.118 105.867 31.118C106.446 31.118 106.95 31.2347 107.379 31.468C107.818 31.7013 108.168 31.9953 108.429 32.35V31.244H110.403V39H108.429V37.866C108.177 38.23 107.827 38.5333 107.379 38.776C106.941 39.0093 106.432 39.126 105.853 39.126C105.2 39.126 104.603 38.958 104.061 38.622C103.529 38.286 103.105 37.8147 102.787 37.208C102.479 36.592 102.325 35.8873 102.325 35.094ZM108.429 35.122C108.429 34.646 108.336 34.24 108.149 33.904C107.963 33.5587 107.711 33.2973 107.393 33.12C107.076 32.9333 106.735 32.84 106.371 32.84C106.007 32.84 105.671 32.9287 105.363 33.106C105.055 33.2833 104.803 33.5447 104.607 33.89C104.421 34.226 104.327 34.6273 104.327 35.094C104.327 35.5607 104.421 35.9713 104.607 36.326C104.803 36.6713 105.055 36.9373 105.363 37.124C105.681 37.3107 106.017 37.404 106.371 37.404C106.735 37.404 107.076 37.3153 107.393 37.138C107.711 36.9513 107.963 36.69 108.149 36.354C108.336 36.0087 108.429 35.598 108.429 35.122ZM115.149 35.094C115.149 34.31 115.303 33.6147 115.611 33.008C115.929 32.4013 116.358 31.9347 116.9 31.608C117.441 31.2813 118.043 31.118 118.706 31.118C119.21 31.118 119.69 31.23 120.148 31.454C120.605 31.6687 120.969 31.958 121.24 32.322V28.64H123.228V39H121.24V37.852C120.997 38.2347 120.656 38.5427 120.218 38.776C119.779 39.0093 119.27 39.126 118.692 39.126C118.038 39.126 117.441 38.958 116.9 38.622C116.358 38.286 115.929 37.8147 115.611 37.208C115.303 36.592 115.149 35.8873 115.149 35.094ZM121.254 35.122C121.254 34.646 121.16 34.24 120.974 33.904C120.787 33.5587 120.535 33.2973 120.218 33.12C119.9 32.9333 119.56 32.84 119.196 32.84C118.832 32.84 118.496 32.9287 118.188 33.106C117.88 33.2833 117.628 33.5447 117.432 33.89C117.245 34.226 117.152 34.6273 117.152 35.094C117.152 35.5607 117.245 35.9713 117.432 36.326C117.628 36.6713 117.88 36.9373 118.188 37.124C118.505 37.3107 118.841 37.404 119.196 37.404C119.56 37.404 119.9 37.3153 120.218 37.138C120.535 36.9513 120.787 36.69 120.974 36.354C121.16 36.0087 121.254 35.598 121.254 35.122ZM132.352 34.954C132.352 35.234 132.333 35.486 132.296 35.71H126.626C126.672 36.27 126.868 36.7087 127.214 37.026C127.559 37.3433 127.984 37.502 128.488 37.502C129.216 37.502 129.734 37.1893 130.042 36.564H132.156C131.932 37.3107 131.502 37.9267 130.868 38.412C130.233 38.888 129.454 39.126 128.53 39.126C127.783 39.126 127.111 38.9627 126.514 38.636C125.926 38.3 125.464 37.8287 125.128 37.222C124.801 36.6153 124.638 35.9153 124.638 35.122C124.638 34.3193 124.801 33.6147 125.128 33.008C125.454 32.4013 125.912 31.9347 126.5 31.608C127.088 31.2813 127.764 31.118 128.53 31.118C129.267 31.118 129.925 31.2767 130.504 31.594C131.092 31.9113 131.544 32.364 131.862 32.952C132.188 33.5307 132.352 34.198 132.352 34.954ZM130.322 34.394C130.312 33.89 130.13 33.4887 129.776 33.19C129.421 32.882 128.987 32.728 128.474 32.728C127.988 32.728 127.578 32.8773 127.242 33.176C126.915 33.4653 126.714 33.8713 126.64 34.394H130.322ZM22.522 53.854H21.164V60H19.176V53.854H18.294V52.244H19.176V51.852C19.176 50.9 19.4467 50.2 19.988 49.752C20.5293 49.304 21.346 49.094 22.438 49.122V50.774C21.962 50.7647 21.6307 50.844 21.444 51.012C21.2573 51.18 21.164 51.4833 21.164 51.922V52.244H22.522V53.854ZM24.7862 51.32C24.4408 51.32 24.1515 51.2127 23.9182 50.998C23.6942 50.774 23.5822 50.4987 23.5822 50.172C23.5822 49.8453 23.6942 49.5747 23.9182 49.36C24.1515 49.136 24.4408 49.024 24.7862 49.024C25.1315 49.024 25.4162 49.136 25.6402 49.36C25.8735 49.5747 25.9902 49.8453 25.9902 50.172C25.9902 50.4987 25.8735 50.774 25.6402 50.998C25.4162 51.2127 25.1315 51.32 24.7862 51.32ZM25.7522 52.244V60H23.7922V52.244H25.7522ZM37.3207 52.132C38.2727 52.132 39.038 52.426 39.6167 53.014C40.2047 53.5927 40.4987 54.4047 40.4987 55.45V60H38.5387V55.716C38.5387 55.1093 38.3847 54.6473 38.0767 54.33C37.7687 54.0033 37.3487 53.84 36.8167 53.84C36.2847 53.84 35.86 54.0033 35.5427 54.33C35.2347 54.6473 35.0807 55.1093 35.0807 55.716V60H33.1207V55.716C33.1207 55.1093 32.9667 54.6473 32.6587 54.33C32.3507 54.0033 31.9307 53.84 31.3987 53.84C30.8573 53.84 30.428 54.0033 30.1107 54.33C29.8027 54.6473 29.6487 55.1093 29.6487 55.716V60H27.6887V52.244H29.6487V53.182C29.9007 52.8553 30.2227 52.5987 30.6147 52.412C31.016 52.2253 31.4547 52.132 31.9307 52.132C32.5373 52.132 33.0787 52.2627 33.5547 52.524C34.0307 52.776 34.3993 53.14 34.6607 53.616C34.9127 53.168 35.2767 52.8087 35.7527 52.538C36.238 52.2673 36.7607 52.132 37.3207 52.132ZM45.1905 56.094C45.1905 55.31 45.3445 54.6147 45.6525 54.008C45.9698 53.4013 46.3992 52.9347 46.9405 52.608C47.4818 52.2813 48.0838 52.118 48.7465 52.118C49.2505 52.118 49.7312 52.23 50.1885 52.454C50.6458 52.6687 51.0098 52.958 51.2805 53.322V49.64H53.2685V60H51.2805V58.852C51.0378 59.2347 50.6972 59.5427 50.2585 59.776C49.8198 60.0093 49.3112 60.126 48.7325 60.126C48.0792 60.126 47.4818 59.958 46.9405 59.622C46.3992 59.286 45.9698 58.8147 45.6525 58.208C45.3445 57.592 45.1905 56.8873 45.1905 56.094ZM51.2945 56.122C51.2945 55.646 51.2012 55.24 51.0145 54.904C50.8278 54.5587 50.5758 54.2973 50.2585 54.12C49.9412 53.9333 49.6005 53.84 49.2365 53.84C48.8725 53.84 48.5365 53.9287 48.2285 54.106C47.9205 54.2833 47.6685 54.5447 47.4725 54.89C47.2858 55.226 47.1925 55.6273 47.1925 56.094C47.1925 56.5607 47.2858 56.9713 47.4725 57.326C47.6685 57.6713 47.9205 57.9373 48.2285 58.124C48.5458 58.3107 48.8818 58.404 49.2365 58.404C49.6005 58.404 49.9412 58.3153 50.2585 58.138C50.5758 57.9513 50.8278 57.69 51.0145 57.354C51.2012 57.0087 51.2945 56.598 51.2945 56.122ZM62.3928 55.954C62.3928 56.234 62.3741 56.486 62.3368 56.71H56.6668C56.7135 57.27 56.9095 57.7087 57.2548 58.026C57.6001 58.3433 58.0248 58.502 58.5288 58.502C59.2568 58.502 59.7748 58.1893 60.0828 57.564H62.1968C61.9728 58.3107 61.5435 58.9267 60.9088 59.412C60.2741 59.888 59.4948 60.126 58.5708 60.126C57.8241 60.126 57.1521 59.9627 56.5548 59.636C55.9668 59.3 55.5048 58.8287 55.1688 58.222C54.8421 57.6153 54.6788 56.9153 54.6788 56.122C54.6788 55.3193 54.8421 54.6147 55.1688 54.008C55.4955 53.4013 55.9528 52.9347 56.5408 52.608C57.1288 52.2813 57.8055 52.118 58.5708 52.118C59.3081 52.118 59.9661 52.2767 60.5448 52.594C61.1328 52.9113 61.5855 53.364 61.9028 53.952C62.2295 54.5307 62.3928 55.198 62.3928 55.954ZM60.3628 55.394C60.3535 54.89 60.1715 54.4887 59.8168 54.19C59.4621 53.882 59.0281 53.728 58.5148 53.728C58.0295 53.728 57.6188 53.8773 57.2828 54.176C56.9561 54.4653 56.7555 54.8713 56.6808 55.394H60.3628ZM70.1274 60.126C69.4927 60.126 68.9234 60.014 68.4194 59.79C67.9154 59.5567 67.514 59.244 67.2154 58.852C66.926 58.46 66.7674 58.026 66.7394 57.55H68.7134C68.7507 57.8487 68.8954 58.096 69.1474 58.292C69.4087 58.488 69.7307 58.586 70.1134 58.586C70.4867 58.586 70.776 58.5113 70.9814 58.362C71.196 58.2127 71.3034 58.0213 71.3034 57.788C71.3034 57.536 71.1727 57.3493 70.9114 57.228C70.6594 57.0973 70.2534 56.9573 69.6934 56.808C69.1147 56.668 68.6387 56.5233 68.2654 56.374C67.9014 56.2247 67.584 55.996 67.3134 55.688C67.052 55.38 66.9214 54.9647 66.9214 54.442C66.9214 54.0127 67.0427 53.6207 67.2854 53.266C67.5374 52.9113 67.892 52.6313 68.3494 52.426C68.816 52.2207 69.362 52.118 69.9874 52.118C70.9114 52.118 71.6487 52.3513 72.1994 52.818C72.75 53.2753 73.0534 53.896 73.1094 54.68H71.2334C71.2054 54.372 71.0747 54.1293 70.8414 53.952C70.6174 53.7653 70.314 53.672 69.9314 53.672C69.5767 53.672 69.3014 53.7373 69.1054 53.868C68.9187 53.9987 68.8254 54.1807 68.8254 54.414C68.8254 54.6753 68.956 54.876 69.2174 55.016C69.4787 55.1467 69.8847 55.282 70.4354 55.422C70.9954 55.562 71.4574 55.7067 71.8214 55.856C72.1854 56.0053 72.498 56.2387 72.7594 56.556C73.03 56.864 73.17 57.2747 73.1794 57.788C73.1794 58.236 73.0534 58.6373 72.8014 58.992C72.5587 59.3467 72.204 59.6267 71.7374 59.832C71.28 60.028 70.7434 60.126 70.1274 60.126ZM81.9983 55.954C81.9983 56.234 81.9796 56.486 81.9423 56.71H76.2723C76.3189 57.27 76.5149 57.7087 76.8603 58.026C77.2056 58.3433 77.6303 58.502 78.1343 58.502C78.8623 58.502 79.3803 58.1893 79.6883 57.564H81.8023C81.5783 58.3107 81.1489 58.9267 80.5143 59.412C79.8796 59.888 79.1003 60.126 78.1763 60.126C77.4296 60.126 76.7576 59.9627 76.1603 59.636C75.5723 59.3 75.1103 58.8287 74.7743 58.222C74.4476 57.6153 74.2843 56.9153 74.2843 56.122C74.2843 55.3193 74.4476 54.6147 74.7743 54.008C75.1009 53.4013 75.5583 52.9347 76.1463 52.608C76.7343 52.2813 77.4109 52.118 78.1763 52.118C78.9136 52.118 79.5716 52.2767 80.1503 52.594C80.7383 52.9113 81.1909 53.364 81.5083 53.952C81.8349 54.5307 81.9983 55.198 81.9983 55.954ZM79.9683 55.394C79.9589 54.89 79.7769 54.4887 79.4223 54.19C79.0676 53.882 78.6336 53.728 78.1203 53.728C77.6349 53.728 77.2243 53.8773 76.8883 54.176C76.5616 54.4653 76.3609 54.8713 76.2863 55.394H79.9683ZM93.0609 52.132C94.0129 52.132 94.7782 52.426 95.3569 53.014C95.9449 53.5927 96.2389 54.4047 96.2389 55.45V60H94.2789V55.716C94.2789 55.1093 94.1249 54.6473 93.8169 54.33C93.5089 54.0033 93.0889 53.84 92.5569 53.84C92.0249 53.84 91.6002 54.0033 91.2829 54.33C90.9749 54.6473 90.8209 55.1093 90.8209 55.716V60H88.8609V55.716C88.8609 55.1093 88.7069 54.6473 88.3989 54.33C88.0909 54.0033 87.6709 53.84 87.1389 53.84C86.5976 53.84 86.1682 54.0033 85.8509 54.33C85.5429 54.6473 85.3889 55.1093 85.3889 55.716V60H83.4289V52.244H85.3889V53.182C85.6409 52.8553 85.9629 52.5987 86.3549 52.412C86.7562 52.2253 87.1949 52.132 87.6709 52.132C88.2776 52.132 88.8189 52.2627 89.2949 52.524C89.7709 52.776 90.1396 53.14 90.4009 53.616C90.6529 53.168 91.0169 52.8087 91.4929 52.538C91.9782 52.2673 92.5009 52.132 93.0609 52.132ZM97.5948 56.094C97.5948 55.31 97.7488 54.6147 98.0568 54.008C98.3741 53.4013 98.7988 52.9347 99.3308 52.608C99.8721 52.2813 100.474 52.118 101.137 52.118C101.715 52.118 102.219 52.2347 102.649 52.468C103.087 52.7013 103.437 52.9953 103.699 53.35V52.244H105.673V60H103.699V58.866C103.447 59.23 103.097 59.5333 102.649 59.776C102.21 60.0093 101.701 60.126 101.123 60.126C100.469 60.126 99.8721 59.958 99.3308 59.622C98.7988 59.286 98.3741 58.8147 98.0568 58.208C97.7488 57.592 97.5948 56.8873 97.5948 56.094ZM103.699 56.122C103.699 55.646 103.605 55.24 103.419 54.904C103.232 54.5587 102.98 54.2973 102.663 54.12C102.345 53.9333 102.005 53.84 101.641 53.84C101.277 53.84 100.941 53.9287 100.633 54.106C100.325 54.2833 100.073 54.5447 99.8768 54.89C99.6901 55.226 99.5968 55.6273 99.5968 56.094C99.5968 56.5607 99.6901 56.9713 99.8768 57.326C100.073 57.6713 100.325 57.9373 100.633 58.124C100.95 58.3107 101.286 58.404 101.641 58.404C102.005 58.404 102.345 58.3153 102.663 58.138C102.98 57.9513 103.232 57.69 103.419 57.354C103.605 57.0087 103.699 56.598 103.699 56.122ZM111.885 52.132C112.809 52.132 113.556 52.426 114.125 53.014C114.694 53.5927 114.979 54.4047 114.979 55.45V60H113.019V55.716C113.019 55.1 112.865 54.6287 112.557 54.302C112.249 53.966 111.829 53.798 111.297 53.798C110.756 53.798 110.326 53.966 110.009 54.302C109.701 54.6287 109.547 55.1 109.547 55.716V60H107.587V52.244H109.547V53.21C109.808 52.874 110.14 52.6127 110.541 52.426C110.952 52.23 111.4 52.132 111.885 52.132ZM116.339 56.094C116.339 55.31 116.493 54.6147 116.801 54.008C117.118 53.4013 117.543 52.9347 118.075 52.608C118.616 52.2813 119.218 52.118 119.881 52.118C120.46 52.118 120.964 52.2347 121.393 52.468C121.832 52.7013 122.182 52.9953 122.443 53.35V52.244H124.417V60H122.443V58.866C122.191 59.23 121.841 59.5333 121.393 59.776C120.954 60.0093 120.446 60.126 119.867 60.126C119.214 60.126 118.616 59.958 118.075 59.622C117.543 59.286 117.118 58.8147 116.801 58.208C116.493 57.592 116.339 56.8873 116.339 56.094ZM122.443 56.122C122.443 55.646 122.35 55.24 122.163 54.904C121.976 54.5587 121.724 54.2973 121.407 54.12C121.09 53.9333 120.749 53.84 120.385 53.84C120.021 53.84 119.685 53.9287 119.377 54.106C119.069 54.2833 118.817 54.5447 118.621 54.89C118.434 55.226 118.341 55.6273 118.341 56.094C118.341 56.5607 118.434 56.9713 118.621 57.326C118.817 57.6713 119.069 57.9373 119.377 58.124C119.694 58.3107 120.03 58.404 120.385 58.404C120.749 58.404 121.09 58.3153 121.407 58.138C121.724 57.9513 121.976 57.69 122.163 57.354C122.35 57.0087 122.443 56.598 122.443 56.122ZM128.865 50.06L128.641 56.822H126.989L126.751 50.06H128.865ZM127.857 60.098C127.503 60.098 127.209 59.9907 126.975 59.776C126.751 59.552 126.639 59.2767 126.639 58.95C126.639 58.6233 126.751 58.3527 126.975 58.138C127.209 57.914 127.503 57.802 127.857 57.802C128.203 57.802 128.487 57.914 128.711 58.138C128.935 58.3527 129.047 58.6233 129.047 58.95C129.047 59.2767 128.935 59.552 128.711 59.776C128.487 59.9907 128.203 60.098 127.857 60.098Z" fill="#2B2B2B"/>
<path d="M23.624 82.66C24.512 82.66 25.288 82.832 25.952 83.176C26.624 83.512 27.14 84 27.5 84.64C27.868 85.272 28.052 86.012 28.052 86.86C28.052 87.708 27.868 88.444 27.5 89.068C27.14 89.692 26.624 90.172 25.952 90.508C25.288 90.836 24.512 91 23.624 91H20.9V82.66H23.624ZM23.624 89.884C24.6 89.884 25.348 89.62 25.868 89.092C26.388 88.564 26.648 87.82 26.648 86.86C26.648 85.892 26.388 85.136 25.868 84.592C25.348 84.048 24.6 83.776 23.624 83.776H22.268V89.884H23.624ZM35.4678 87.532C35.4678 87.78 35.4518 88.004 35.4198 88.204H30.3678C30.4078 88.732 30.6038 89.156 30.9558 89.476C31.3078 89.796 31.7398 89.956 32.2518 89.956C32.9878 89.956 33.5078 89.648 33.8118 89.032H35.2878C35.0878 89.64 34.7238 90.14 34.1958 90.532C33.6758 90.916 33.0278 91.108 32.2518 91.108C31.6198 91.108 31.0518 90.968 30.5478 90.688C30.0518 90.4 29.6598 90 29.3718 89.488C29.0918 88.968 28.9518 88.368 28.9518 87.688C28.9518 87.008 29.0878 86.412 29.3598 85.9C29.6398 85.38 30.0278 84.98 30.5238 84.7C31.0278 84.42 31.6038 84.28 32.2518 84.28C32.8758 84.28 33.4318 84.416 33.9198 84.688C34.4078 84.96 34.7878 85.344 35.0598 85.84C35.3318 86.328 35.4678 86.892 35.4678 87.532ZM34.0398 87.1C34.0318 86.596 33.8518 86.192 33.4998 85.888C33.1478 85.584 32.7118 85.432 32.1918 85.432C31.7198 85.432 31.3158 85.584 30.9798 85.888C30.6438 86.184 30.4438 86.588 30.3798 87.1H34.0398ZM39.2141 91.108C38.6941 91.108 38.2261 91.016 37.8101 90.832C37.4021 90.64 37.0781 90.384 36.8381 90.064C36.5981 89.736 36.4701 89.372 36.4541 88.972H37.8701C37.8941 89.252 38.0261 89.488 38.2661 89.68C38.5141 89.864 38.8221 89.956 39.1901 89.956C39.5741 89.956 39.8701 89.884 40.0781 89.74C40.2941 89.588 40.4021 89.396 40.4021 89.164C40.4021 88.916 40.2821 88.732 40.0421 88.612C39.8101 88.492 39.4381 88.36 38.9261 88.216C38.4301 88.08 38.0261 87.948 37.7141 87.82C37.4021 87.692 37.1301 87.496 36.8981 87.232C36.6741 86.968 36.5621 86.62 36.5621 86.188C36.5621 85.836 36.6661 85.516 36.8741 85.228C37.0821 84.932 37.3781 84.7 37.7621 84.532C38.1541 84.364 38.6021 84.28 39.1061 84.28C39.8581 84.28 40.4621 84.472 40.9181 84.856C41.3821 85.232 41.6301 85.748 41.6621 86.404H40.2941C40.2701 86.108 40.1501 85.872 39.9341 85.696C39.7181 85.52 39.4261 85.432 39.0581 85.432C38.6981 85.432 38.4221 85.5 38.2301 85.636C38.0381 85.772 37.9421 85.952 37.9421 86.176C37.9421 86.352 38.0061 86.5 38.1341 86.62C38.2621 86.74 38.4181 86.836 38.6021 86.908C38.7861 86.972 39.0581 87.056 39.4181 87.16C39.8981 87.288 40.2901 87.42 40.5941 87.556C40.9061 87.684 41.1741 87.876 41.3981 88.132C41.6221 88.388 41.7381 88.728 41.7461 89.152C41.7461 89.528 41.6421 89.864 41.4341 90.16C41.2261 90.456 40.9301 90.688 40.5461 90.856C40.1701 91.024 39.7261 91.108 39.2141 91.108ZM42.7682 87.688C42.7682 87.008 42.9042 86.412 43.1762 85.9C43.4562 85.38 43.8402 84.98 44.3282 84.7C44.8162 84.42 45.3762 84.28 46.0082 84.28C46.8082 84.28 47.4682 84.472 47.9882 84.856C48.5162 85.232 48.8722 85.772 49.0562 86.476H47.5802C47.4602 86.148 47.2682 85.892 47.0042 85.708C46.7402 85.524 46.4082 85.432 46.0082 85.432C45.4482 85.432 45.0002 85.632 44.6642 86.032C44.3362 86.424 44.1722 86.976 44.1722 87.688C44.1722 88.4 44.3362 88.956 44.6642 89.356C45.0002 89.756 45.4482 89.956 46.0082 89.956C46.8002 89.956 47.3242 89.608 47.5802 88.912H49.0562C48.8642 89.584 48.5042 90.12 47.9762 90.52C47.4482 90.912 46.7922 91.108 46.0082 91.108C45.3762 91.108 44.8162 90.968 44.3282 90.688C43.8402 90.4 43.4562 90 43.1762 89.488C42.9042 88.968 42.7682 88.368 42.7682 87.688ZM53.2875 91.108C52.6635 91.108 52.0995 90.968 51.5955 90.688C51.0915 90.4 50.6955 90 50.4075 89.488C50.1195 88.968 49.9755 88.368 49.9755 87.688C49.9755 87.016 50.1235 86.42 50.4195 85.9C50.7155 85.38 51.1195 84.98 51.6315 84.7C52.1435 84.42 52.7155 84.28 53.3475 84.28C53.9795 84.28 54.5515 84.42 55.0635 84.7C55.5755 84.98 55.9795 85.38 56.2755 85.9C56.5715 86.42 56.7195 87.016 56.7195 87.688C56.7195 88.36 56.5675 88.956 56.2635 89.476C55.9595 89.996 55.5435 90.4 55.0155 90.688C54.4955 90.968 53.9195 91.108 53.2875 91.108ZM53.2875 89.92C53.6395 89.92 53.9675 89.836 54.2715 89.668C54.5835 89.5 54.8355 89.248 55.0275 88.912C55.2195 88.576 55.3155 88.168 55.3155 87.688C55.3155 87.208 55.2235 86.804 55.0395 86.476C54.8555 86.14 54.6115 85.888 54.3075 85.72C54.0035 85.552 53.6755 85.468 53.3235 85.468C52.9715 85.468 52.6435 85.552 52.3395 85.72C52.0435 85.888 51.8075 86.14 51.6315 86.476C51.4555 86.804 51.3675 87.208 51.3675 87.688C51.3675 88.4 51.5475 88.952 51.9075 89.344C52.2755 89.728 52.7355 89.92 53.2875 89.92ZM61.4079 84.28C61.9279 84.28 62.3919 84.388 62.7999 84.604C63.2159 84.82 63.5399 85.14 63.7719 85.564C64.0039 85.988 64.1199 86.5 64.1199 87.1V91H62.7639V87.304C62.7639 86.712 62.6159 86.26 62.3199 85.948C62.0239 85.628 61.6199 85.468 61.1079 85.468C60.5959 85.468 60.1879 85.628 59.8839 85.948C59.5879 86.26 59.4399 86.712 59.4399 87.304V91H58.0719V84.388H59.4399V85.144C59.6639 84.872 59.9479 84.66 60.2919 84.508C60.6439 84.356 61.0159 84.28 61.4079 84.28ZM67.4608 85.504V89.164C67.4608 89.412 67.5168 89.592 67.6288 89.704C67.7488 89.808 67.9488 89.86 68.2288 89.86H69.0688V91H67.9888C67.3728 91 66.9008 90.856 66.5728 90.568C66.2448 90.28 66.0808 89.812 66.0808 89.164V85.504H65.3008V84.388H66.0808V82.744H67.4608V84.388H69.0688V85.504H67.4608ZM73.1977 91.108C72.5737 91.108 72.0097 90.968 71.5057 90.688C71.0017 90.4 70.6057 90 70.3177 89.488C70.0297 88.968 69.8857 88.368 69.8857 87.688C69.8857 87.016 70.0337 86.42 70.3297 85.9C70.6257 85.38 71.0297 84.98 71.5417 84.7C72.0537 84.42 72.6257 84.28 73.2577 84.28C73.8897 84.28 74.4617 84.42 74.9737 84.7C75.4857 84.98 75.8897 85.38 76.1857 85.9C76.4817 86.42 76.6297 87.016 76.6297 87.688C76.6297 88.36 76.4777 88.956 76.1737 89.476C75.8697 89.996 75.4537 90.4 74.9257 90.688C74.4057 90.968 73.8297 91.108 73.1977 91.108ZM73.1977 89.92C73.5497 89.92 73.8777 89.836 74.1817 89.668C74.4937 89.5 74.7457 89.248 74.9377 88.912C75.1297 88.576 75.2257 88.168 75.2257 87.688C75.2257 87.208 75.1337 86.804 74.9497 86.476C74.7657 86.14 74.5217 85.888 74.2177 85.72C73.9137 85.552 73.5857 85.468 73.2337 85.468C72.8817 85.468 72.5537 85.552 72.2497 85.72C71.9537 85.888 71.7177 86.14 71.5417 86.476C71.3657 86.804 71.2777 87.208 71.2777 87.688C71.2777 88.4 71.4577 88.952 71.8177 89.344C72.1857 89.728 72.6457 89.92 73.1977 89.92Z" fill="#2B2B2B"/>
<path d="M20.444 105.664C20.444 105 20.58 104.412 20.852 103.9C21.132 103.388 21.508 102.992 21.98 102.712C22.46 102.424 22.988 102.28 23.564 102.28C24.084 102.28 24.536 102.384 24.92 102.592C25.312 102.792 25.624 103.044 25.856 103.348V102.388H27.236V109H25.856V108.016C25.624 108.328 25.308 108.588 24.908 108.796C24.508 109.004 24.052 109.108 23.54 109.108C22.972 109.108 22.452 108.964 21.98 108.676C21.508 108.38 21.132 107.972 20.852 107.452C20.58 106.924 20.444 106.328 20.444 105.664ZM25.856 105.688C25.856 105.232 25.76 104.836 25.568 104.5C25.384 104.164 25.14 103.908 24.836 103.732C24.532 103.556 24.204 103.468 23.852 103.468C23.5 103.468 23.172 103.556 22.868 103.732C22.564 103.9 22.316 104.152 22.124 104.488C21.94 104.816 21.848 105.208 21.848 105.664C21.848 106.12 21.94 106.52 22.124 106.864C22.316 107.208 22.564 107.472 22.868 107.656C23.18 107.832 23.508 107.92 23.852 107.92C24.204 107.92 24.532 107.832 24.836 107.656C25.14 107.48 25.384 107.224 25.568 106.888C25.76 106.544 25.856 106.144 25.856 105.688ZM30.6288 103.504V107.164C30.6288 107.412 30.6848 107.592 30.7968 107.704C30.9168 107.808 31.1168 107.86 31.3968 107.86H32.2368V109H31.1568C30.5408 109 30.0688 108.856 29.7408 108.568C29.4128 108.28 29.2488 107.812 29.2488 107.164V103.504H28.4688V102.388H29.2488V100.744H30.6288V102.388H32.2368V103.504H30.6288ZM39.5577 105.532C39.5577 105.78 39.5417 106.004 39.5097 106.204H34.4577C34.4977 106.732 34.6937 107.156 35.0457 107.476C35.3977 107.796 35.8297 107.956 36.3417 107.956C37.0777 107.956 37.5977 107.648 37.9017 107.032H39.3777C39.1777 107.64 38.8137 108.14 38.2857 108.532C37.7657 108.916 37.1177 109.108 36.3417 109.108C35.7097 109.108 35.1417 108.968 34.6377 108.688C34.1417 108.4 33.7497 108 33.4617 107.488C33.1817 106.968 33.0417 106.368 33.0417 105.688C33.0417 105.008 33.1777 104.412 33.4497 103.9C33.7297 103.38 34.1177 102.98 34.6137 102.7C35.1177 102.42 35.6937 102.28 36.3417 102.28C36.9657 102.28 37.5217 102.416 38.0097 102.688C38.4977 102.96 38.8777 103.344 39.1497 103.84C39.4217 104.328 39.5577 104.892 39.5577 105.532ZM38.1297 105.1C38.1217 104.596 37.9417 104.192 37.5897 103.888C37.2377 103.584 36.8017 103.432 36.2817 103.432C35.8097 103.432 35.4057 103.584 35.0697 103.888C34.7337 104.184 34.5337 104.588 34.4697 105.1H38.1297ZM37.5417 100.612L34.8897 101.92V100.912L37.5417 99.448V100.612ZM43.6731 107.176V106.144L47.7051 100.36H49.3611V105.988H50.4771V107.176H49.3611V109H48.0171V107.176H43.6731ZM48.0771 101.752L45.2451 105.988H48.0771V101.752ZM51.6106 104.512C51.6106 103.128 51.8426 102.048 52.3066 101.272C52.7786 100.488 53.5866 100.096 54.7306 100.096C55.8746 100.096 56.6786 100.488 57.1426 101.272C57.6146 102.048 57.8506 103.128 57.8506 104.512C57.8506 105.912 57.6146 107.008 57.1426 107.8C56.6786 108.584 55.8746 108.976 54.7306 108.976C53.5866 108.976 52.7786 108.584 52.3066 107.8C51.8426 107.008 51.6106 105.912 51.6106 104.512ZM56.5066 104.512C56.5066 103.864 56.4626 103.316 56.3746 102.868C56.2946 102.42 56.1266 102.056 55.8706 101.776C55.6146 101.488 55.2346 101.344 54.7306 101.344C54.2266 101.344 53.8466 101.488 53.5906 101.776C53.3346 102.056 53.1626 102.42 53.0746 102.868C52.9946 103.316 52.9546 103.864 52.9546 104.512C52.9546 105.184 52.9946 105.748 53.0746 106.204C53.1546 106.66 53.3226 107.028 53.5786 107.308C53.8426 107.588 54.2266 107.728 54.7306 107.728C55.2346 107.728 55.6146 107.588 55.8706 107.308C56.1346 107.028 56.3066 106.66 56.3866 106.204C56.4666 105.748 56.5066 105.184 56.5066 104.512ZM59.0821 102.364C59.0821 101.78 59.2501 101.324 59.5861 100.996C59.9301 100.66 60.3701 100.492 60.9061 100.492C61.4421 100.492 61.8781 100.66 62.2141 100.996C62.5581 101.324 62.7301 101.78 62.7301 102.364C62.7301 102.948 62.5581 103.408 62.2141 103.744C61.8781 104.08 61.4421 104.248 60.9061 104.248C60.3701 104.248 59.9301 104.08 59.5861 103.744C59.2501 103.408 59.0821 102.948 59.0821 102.364ZM66.4021 100.648L61.6141 109H60.2701L65.0581 100.648H66.4021ZM60.9061 101.32C60.4021 101.32 60.1501 101.668 60.1501 102.364C60.1501 103.068 60.4021 103.42 60.9061 103.42C61.1461 103.42 61.3301 103.336 61.4581 103.168C61.5941 102.992 61.6621 102.724 61.6621 102.364C61.6621 101.668 61.4101 101.32 60.9061 101.32ZM63.9661 107.272C63.9661 106.688 64.1341 106.232 64.4701 105.904C64.8141 105.568 65.2541 105.4 65.7901 105.4C66.3181 105.4 66.7501 105.568 67.0861 105.904C67.4301 106.232 67.6021 106.688 67.6021 107.272C67.6021 107.856 67.4301 108.316 67.0861 108.652C66.7501 108.988 66.3181 109.156 65.7901 109.156C65.2541 109.156 64.8141 108.988 64.4701 108.652C64.1341 108.316 63.9661 107.856 63.9661 107.272ZM65.7781 106.228C65.2741 106.228 65.0221 106.576 65.0221 107.272C65.0221 107.968 65.2741 108.316 65.7781 108.316C66.2821 108.316 66.5341 107.968 66.5341 107.272C66.5341 106.576 66.2821 106.228 65.7781 106.228ZM71.6667 105.664C71.6667 105 71.8027 104.412 72.0747 103.9C72.3547 103.388 72.7307 102.992 73.2027 102.712C73.6827 102.424 74.2107 102.28 74.7867 102.28C75.3067 102.28 75.7587 102.384 76.1427 102.592C76.5347 102.792 76.8467 103.044 77.0787 103.348V102.388H78.4587V109H77.0787V108.016C76.8467 108.328 76.5307 108.588 76.1307 108.796C75.7307 109.004 75.2747 109.108 74.7627 109.108C74.1947 109.108 73.6747 108.964 73.2027 108.676C72.7307 108.38 72.3547 107.972 72.0747 107.452C71.8027 106.924 71.6667 106.328 71.6667 105.664ZM77.0787 105.688C77.0787 105.232 76.9827 104.836 76.7907 104.5C76.6067 104.164 76.3627 103.908 76.0587 103.732C75.7547 103.556 75.4267 103.468 75.0747 103.468C74.7227 103.468 74.3947 103.556 74.0907 103.732C73.7867 103.9 73.5387 104.152 73.3467 104.488C73.1627 104.816 73.0707 105.208 73.0707 105.664C73.0707 106.12 73.1627 106.52 73.3467 106.864C73.5387 107.208 73.7867 107.472 74.0907 107.656C74.4027 107.832 74.7307 107.92 75.0747 107.92C75.4267 107.92 75.7547 107.832 76.0587 107.656C76.3627 107.48 76.6067 107.224 76.7907 106.888C76.9827 106.544 77.0787 106.144 77.0787 105.688ZM81.8515 103.504V107.164C81.8515 107.412 81.9075 107.592 82.0195 107.704C82.1395 107.808 82.3395 107.86 82.6195 107.86H83.4595V109H82.3795C81.7635 109 81.2915 108.856 80.9635 108.568C80.6355 108.28 80.4715 107.812 80.4715 107.164V103.504H79.6915V102.388H80.4715V100.744H81.8515V102.388H83.4595V103.504H81.8515ZM90.7803 105.532C90.7803 105.78 90.7643 106.004 90.7323 106.204H85.6803C85.7203 106.732 85.9163 107.156 86.2683 107.476C86.6203 107.796 87.0523 107.956 87.5643 107.956C88.3003 107.956 88.8203 107.648 89.1243 107.032H90.6003C90.4003 107.64 90.0363 108.14 89.5083 108.532C88.9883 108.916 88.3403 109.108 87.5643 109.108C86.9323 109.108 86.3643 108.968 85.8603 108.688C85.3643 108.4 84.9723 108 84.6843 107.488C84.4043 106.968 84.2643 106.368 84.2643 105.688C84.2643 105.008 84.4003 104.412 84.6723 103.9C84.9523 103.38 85.3403 102.98 85.8363 102.7C86.3403 102.42 86.9163 102.28 87.5643 102.28C88.1883 102.28 88.7443 102.416 89.2323 102.688C89.7203 102.96 90.1003 103.344 90.3723 103.84C90.6443 104.328 90.7803 104.892 90.7803 105.532ZM89.3523 105.1C89.3443 104.596 89.1643 104.192 88.8123 103.888C88.4603 103.584 88.0243 103.432 87.5043 103.432C87.0323 103.432 86.6283 103.584 86.2923 103.888C85.9563 104.184 85.7563 104.588 85.6923 105.1H89.3523ZM88.7643 100.612L86.1123 101.92V100.912L88.7643 99.448V100.612ZM94.7878 105.664C94.7878 105 94.9238 104.412 95.1958 103.9C95.4758 103.388 95.8518 102.992 96.3238 102.712C96.8038 102.424 97.3358 102.28 97.9198 102.28C98.3518 102.28 98.7758 102.376 99.1918 102.568C99.6158 102.752 99.9518 103 100.2 103.312V100.12H101.58V109H100.2V108.004C99.9758 108.324 99.6638 108.588 99.2638 108.796C98.8718 109.004 98.4198 109.108 97.9078 109.108C97.3318 109.108 96.8038 108.964 96.3238 108.676C95.8518 108.38 95.4758 107.972 95.1958 107.452C94.9238 106.924 94.7878 106.328 94.7878 105.664ZM100.2 105.688C100.2 105.232 100.104 104.836 99.9118 104.5C99.7278 104.164 99.4838 103.908 99.1798 103.732C98.8758 103.556 98.5478 103.468 98.1958 103.468C97.8438 103.468 97.5158 103.556 97.2118 103.732C96.9078 103.9 96.6598 104.152 96.4678 104.488C96.2838 104.816 96.1918 105.208 96.1918 105.664C96.1918 106.12 96.2838 106.52 96.4678 106.864C96.6598 107.208 96.9078 107.472 97.2118 107.656C97.5238 107.832 97.8518 107.92 98.1958 107.92C98.5478 107.92 98.8758 107.832 99.1798 107.656C99.4838 107.48 99.7278 107.224 99.9118 106.888C100.104 106.544 100.2 106.144 100.2 105.688ZM104.073 101.512C103.825 101.512 103.617 101.428 103.449 101.26C103.281 101.092 103.197 100.884 103.197 100.636C103.197 100.388 103.281 100.18 103.449 100.012C103.617 99.844 103.825 99.76 104.073 99.76C104.313 99.76 104.517 99.844 104.685 100.012C104.853 100.18 104.937 100.388 104.937 100.636C104.937 100.884 104.853 101.092 104.685 101.26C104.517 101.428 104.313 101.512 104.073 101.512ZM104.745 102.388V109H103.377V102.388H104.745ZM106.085 105.664C106.085 105 106.221 104.412 106.493 103.9C106.773 103.388 107.149 102.992 107.621 102.712C108.101 102.424 108.629 102.28 109.205 102.28C109.725 102.28 110.177 102.384 110.561 102.592C110.953 102.792 111.265 103.044 111.497 103.348V102.388H112.877V109H111.497V108.016C111.265 108.328 110.949 108.588 110.549 108.796C110.149 109.004 109.693 109.108 109.181 109.108C108.613 109.108 108.093 108.964 107.621 108.676C107.149 108.38 106.773 107.972 106.493 107.452C106.221 106.924 106.085 106.328 106.085 105.664ZM111.497 105.688C111.497 105.232 111.401 104.836 111.209 104.5C111.025 104.164 110.781 103.908 110.477 103.732C110.173 103.556 109.845 103.468 109.493 103.468C109.141 103.468 108.813 103.556 108.509 103.732C108.205 103.9 107.957 104.152 107.765 104.488C107.581 104.816 107.489 105.208 107.489 105.664C107.489 106.12 107.581 106.52 107.765 106.864C107.957 107.208 108.205 107.472 108.509 107.656C108.821 107.832 109.149 107.92 109.493 107.92C109.845 107.92 110.173 107.832 110.477 107.656C110.781 107.48 111.025 107.224 111.209 106.888C111.401 106.544 111.497 106.144 111.497 105.688ZM117.431 101.5V100.252H119.927V109H118.547V101.5H117.431ZM121.638 107.176V106.144L125.67 100.36H127.326V105.988H128.442V107.176H127.326V109H125.982V107.176H121.638ZM126.042 101.752L123.21 105.988H126.042V101.752Z" fill="#018EAA"/>
<g clip-path="url(#clip1_999_4999)">
<rect x="156" y="-41" width="227" height="227" rx="113.5" fill="#FFE1E4"/>
<path d="M331.279 46.7259C339.019 51.8394 342.561 55.3703 348.271 61.684C376.911 93.3499 348.271 158 348.271 158L218 154.352C218 154.352 277.161 10.9717 331.279 46.7259Z" fill="#FECCD2"/>
<path d="M180.788 64.7434C167.375 66.7659 155.5 80.5 154.176 87.3686C146.742 125.948 199.489 184 199.489 184L296 180.19C296 180.19 257.427 53.1872 180.788 64.7434Z" fill="#FECCD2"/>
</g>
</g>
<defs>
<linearGradient id="paint0_linear_999_4999" x1="5.99999" y1="2.97932" x2="325.341" y2="250.91" gradientUnits="userSpaceOnUse">
<stop stop-color="#FFF5EF"/>
<stop offset="1" stop-color="#FFE8DB"/>
</linearGradient>
<clipPath id="clip0_999_4999">
<rect width="327" height="144" rx="14" fill="white"/>
</clipPath>
<clipPath id="clip1_999_4999">
<rect x="156" y="-41" width="227" height="227" rx="113.5" fill="white"/>
</clipPath>
</defs>
</svg>
