<svg width="50" height="50" viewBox="0 0 50 50" fill="none" xmlns="http://www.w3.org/2000/svg">
<rect width="50" height="50" rx="14" fill="#D9EEF2"/>
<path d="M25 8.75C21.7861 8.75 18.6443 9.70305 15.972 11.4886C13.2997 13.2742 11.2169 15.8121 9.98696 18.7814C8.75704 21.7507 8.43524 25.018 9.06225 28.1702C9.68926 31.3224 11.2369 34.2179 13.5095 36.4905C15.7821 38.7631 18.6776 40.3107 21.8298 40.9378C24.982 41.5648 28.2493 41.243 31.2186 40.013C34.1879 38.7831 36.7258 36.7003 38.5114 34.028C40.297 31.3557 41.25 28.2139 41.25 25C41.2459 20.6915 39.5325 16.5607 36.4859 13.5141C33.4394 10.4675 29.3085 8.75414 25 8.75ZM25 35C24.6292 35 24.2667 34.89 23.9583 34.684C23.65 34.478 23.4096 34.1851 23.2677 33.8425C23.1258 33.4999 23.0887 33.1229 23.161 32.7592C23.2334 32.3955 23.412 32.0614 23.6742 31.7992C23.9364 31.537 24.2705 31.3584 24.6342 31.286C24.9979 31.2137 25.3749 31.2508 25.7175 31.3927C26.0601 31.5346 26.353 31.775 26.559 32.0833C26.765 32.3916 26.875 32.7542 26.875 33.125C26.875 33.6223 26.6775 34.0992 26.3258 34.4508C25.9742 34.8025 25.4973 35 25 35ZM26.25 27.3594V27.5C26.25 27.8315 26.1183 28.1495 25.8839 28.3839C25.6495 28.6183 25.3315 28.75 25 28.75C24.6685 28.75 24.3505 28.6183 24.1161 28.3839C23.8817 28.1495 23.75 27.8315 23.75 27.5V26.25C23.75 25.9185 23.8817 25.6005 24.1161 25.3661C24.3505 25.1317 24.6685 25 25 25C25.6181 25 26.2223 24.8167 26.7362 24.4733C27.2501 24.13 27.6506 23.6419 27.8871 23.0709C28.1237 22.4999 28.1855 21.8715 28.065 21.2653C27.9444 20.6592 27.6468 20.1023 27.2097 19.6653C26.7727 19.2283 26.2159 18.9306 25.6097 18.81C25.0035 18.6895 24.3751 18.7514 23.8041 18.9879C23.2331 19.2244 22.745 19.6249 22.4017 20.1388C22.0583 20.6527 21.875 21.2569 21.875 21.875C21.875 22.2065 21.7433 22.5245 21.5089 22.7589C21.2745 22.9933 20.9565 23.125 20.625 23.125C20.2935 23.125 19.9755 22.9933 19.7411 22.7589C19.5067 22.5245 19.375 22.2065 19.375 21.875C19.375 20.8161 19.6739 19.7787 20.2373 18.8821C20.8007 17.9856 21.6057 17.2662 22.5598 16.8069C23.5139 16.3475 24.5782 16.1668 25.6305 16.2855C26.6827 16.4041 27.68 16.8174 28.5078 17.4778C29.3356 18.1381 29.9602 19.0187 30.3097 20.0182C30.6592 21.0178 30.7196 22.0957 30.4837 23.128C30.2478 24.1603 29.7254 25.105 28.9764 25.8536C28.2275 26.6021 27.2824 27.1241 26.25 27.3594Z" fill="#018EAA"/>
</svg>
