<svg width="269" height="238" viewBox="0 0 269 238" fill="none" xmlns="http://www.w3.org/2000/svg">
<g filter="url(#filter0_f_760_27864)">
<path fill-rule="evenodd" clip-rule="evenodd" d="M129.087 2.02626C184.043 1.26746 244.694 16.7884 262.641 69.9441C281.353 125.363 248.697 183.091 201.394 216.182C158.334 246.306 102.361 242.789 59.9174 211.763C16.3083 179.885 -10.953 125.446 6.18325 73.4851C22.8399 22.9784 76.9975 2.74548 129.087 2.02626Z" fill="#D9EEF2"/>
</g>
<g clip-path="url(#clip0_760_27864)">
<path d="M228.543 0L226.491 1.97675L204.171 23.4935L166.331 59.9707L168.114 216.111L24.1885 180.665V77.3206L78.4819 14.7105L228.543 0Z" fill="white"/>
<path opacity="0.1" d="M228.543 0L226.491 1.97675L204.171 23.4935L166.331 59.9707L168.114 216.111L24.1885 180.665V77.3206L78.4819 14.7105L228.543 0Z" fill="#018EAA"/>
<path d="M244 99.1968L239.855 205.18L91.3008 227.812L24.1885 180.665V78.8284L166.331 59.9707L244 99.1968Z" fill="white"/>
<path d="M243.812 99.1968L239.663 205.18L91.1124 227.812L24 180.665V78.8284L166.143 59.9707L243.812 99.1968Z" fill="white"/>
<path opacity="0.1" d="M91.3008 118.431V227.812L24.1885 180.665V78.896L91.3008 118.431Z" fill="#018EAA"/>
<path opacity="0.1" d="M226.491 1.97656L204.171 23.4934L96.5805 35.4549L77.3506 16.5944L226.491 1.97656Z" fill="#018EAA"/>
<path opacity="0.1" d="M166.331 59.9707L167.838 217.251L239.854 205.18L244 99.1968L166.331 59.9707Z" fill="#018EAA"/>
<path d="M244 99.1968L214.968 96.5546L145.231 62.0148L166.331 59.9707L244 99.1968Z" fill="white"/>
<path d="M78.4814 14.7105L97.7113 33.5682L226.656 19.2368L228.543 0L78.4814 14.7105Z" fill="white"/>
<g filter="url(#filter1_f_760_27864)">
<path d="M144.152 42.192C150.68 42.192 155.928 43.92 159.896 47.376C163.864 50.832 165.848 55.728 165.848 62.064C165.848 68.464 163.8 73.36 159.704 76.752C155.672 80.144 150.232 81.904 143.384 82.032V91.728H130.616V73.2H136.088C141.272 73.2 145.304 72.432 148.184 70.896C151.064 69.296 152.504 66.384 152.504 62.16C152.504 59.344 151.704 57.168 150.104 55.632C148.504 54.032 146.36 53.232 143.672 53.232C140.728 53.232 138.392 54.096 136.664 55.824C134.936 57.488 134.072 59.664 134.072 62.352H121.304C121.176 58.512 122.008 55.088 123.8 52.08C125.592 49.008 128.216 46.608 131.672 44.88C135.192 43.088 139.352 42.192 144.152 42.192ZM144.44 99.888V114H129.848V99.888H144.44Z" fill="#018EAA"/>
</g>
<path d="M243.812 99.7612L242.097 136.612L241.404 151.502L238.911 204.992L90.3574 228V118.243L243.812 99.7612Z" fill="white"/>
<path d="M24.1885 78.8284L52.8158 75.0293L113.169 107.494L91.3009 118.431L24.1885 78.8284Z" fill="white"/>
<path opacity="0.05" d="M24.1885 78.8284L52.8158 75.0293L113.169 107.494L91.3009 118.431L24.1885 78.8284Z" fill="#018EAA"/>
<path d="M243 136.5L242.5 151L90.3574 167.038L22.5 136L23.5 122L90.3574 151.286L243 136.5Z" fill="#D9EEF2"/>
<path opacity="0.1" d="M90.3577 151.286V167.038L24.1885 136.887V122.393L90.3577 151.286Z" fill="#018EAA"/>
</g>
<defs>
<filter id="filter0_f_760_27864" x="0" y="1" width="269" height="237" filterUnits="userSpaceOnUse" color-interpolation-filters="sRGB">
<feFlood flood-opacity="0" result="BackgroundImageFix"/>
<feBlend mode="normal" in="SourceGraphic" in2="BackgroundImageFix" result="shape"/>
<feGaussianBlur stdDeviation="0.5" result="effect1_foregroundBlur_760_27864"/>
</filter>
<filter id="filter1_f_760_27864" x="120.112" y="41.1919" width="46.7354" height="73.8081" filterUnits="userSpaceOnUse" color-interpolation-filters="sRGB">
<feFlood flood-opacity="0" result="BackgroundImageFix"/>
<feBlend mode="normal" in="SourceGraphic" in2="BackgroundImageFix" result="shape"/>
<feGaussianBlur stdDeviation="0.5" result="effect1_foregroundBlur_760_27864"/>
</filter>
<clipPath id="clip0_760_27864">
<rect width="220" height="228" fill="white" transform="translate(24)"/>
</clipPath>
</defs>
</svg>
