<svg width="24" height="24" viewBox="0 0 24 24" fill="none" xmlns="http://www.w3.org/2000/svg">
<path d="M19.5 4.5H4.5C3.90402 4.50247 3.33316 4.74031 2.91174 5.16174C2.49031 5.58316 2.25247 6.15402 2.25 6.75V17.25C2.25247 17.846 2.49031 18.4168 2.91174 18.8383C3.33316 19.2597 3.90402 19.4975 4.5 19.5H19.5C20.096 19.4975 20.6668 19.2597 21.0883 18.8383C21.5097 18.4168 21.7475 17.846 21.75 17.25V6.75C21.7475 6.15402 21.5097 5.58316 21.0883 5.16174C20.6668 4.74031 20.096 4.50247 19.5 4.5ZM20.25 10.5H15.675C15.3293 10.5012 14.9946 10.6211 14.7267 10.8395C14.4588 11.0579 14.274 11.3617 14.2031 11.7C14.0981 12.2066 13.8216 12.6616 13.4203 12.9882C13.019 13.3148 12.5174 13.4931 12 13.4931C11.4826 13.4931 10.981 13.3148 10.5797 12.9882C10.1784 12.6616 9.90194 12.2066 9.79688 11.7C9.72603 11.3617 9.54121 11.0579 9.27331 10.8395C9.0054 10.6211 8.67065 10.5012 8.325 10.5H3.75V9H20.25V10.5ZM20.25 7.5H3.75V6.75C3.75 6.55109 3.82902 6.36032 3.96967 6.21967C4.11032 6.07902 4.30109 6 4.5 6H19.5C19.6989 6 19.8897 6.07902 20.0303 6.21967C20.171 6.36032 20.25 6.55109 20.25 6.75V7.5Z" fill="#018EAA"/>
</svg>
