<svg width="16" height="16" viewBox="0 0 16 16" fill="none" xmlns="http://www.w3.org/2000/svg">
<path d="M13.5 4.50039H11.3125C11.6274 4.10269 11.7795 3.60018 11.7378 3.0946C11.6962 2.58902 11.464 2.11816 11.0882 1.77735C10.7124 1.43655 10.2212 1.25126 9.71397 1.25902C9.20674 1.26678 8.72141 1.467 8.35625 1.81914C8.20895 1.96825 8.08844 2.14162 8 2.33164C7.91156 2.14162 7.79105 1.96825 7.64375 1.81914C7.27859 1.467 6.79326 1.26678 6.28603 1.25902C5.77879 1.25126 5.28757 1.43655 4.91181 1.77735C4.53604 2.11816 4.30383 2.58902 4.26219 3.0946C4.22054 3.60018 4.37257 4.10269 4.6875 4.50039H2.5C2.23478 4.50039 1.98043 4.60575 1.79289 4.79329C1.60536 4.98082 1.5 5.23518 1.5 5.50039V7.50039C1.5 7.76561 1.60536 8.01996 1.79289 8.2075C1.98043 8.39504 2.23478 8.50039 2.5 8.50039V12.5004C2.5 12.7656 2.60536 13.02 2.79289 13.2075C2.98043 13.395 3.23478 13.5004 3.5 13.5004H12.5C12.7652 13.5004 13.0196 13.395 13.2071 13.2075C13.3946 13.02 13.5 12.7656 13.5 12.5004V8.50039C13.7652 8.50039 14.0196 8.39504 14.2071 8.2075C14.3946 8.01996 14.5 7.76561 14.5 7.50039V5.50039C14.5 5.23518 14.3946 4.98082 14.2071 4.79329C14.0196 4.60575 13.7652 4.50039 13.5 4.50039ZM9.0625 2.52539C9.15346 2.42501 9.26386 2.34415 9.38702 2.28772C9.51017 2.2313 9.64351 2.20048 9.77893 2.19715C9.91436 2.19381 10.049 2.21803 10.1748 2.26832C10.3006 2.31862 10.4149 2.39395 10.5107 2.48974C10.6064 2.58553 10.6818 2.69978 10.7321 2.82556C10.7824 2.95134 10.8066 3.08603 10.8032 3.22146C10.7999 3.35688 10.7691 3.49022 10.7127 3.61337C10.6562 3.73653 10.5754 3.84693 10.475 3.93789C10.1688 4.25039 9.275 4.41914 8.51875 4.48164C8.58125 3.72539 8.75 2.83164 9.0625 2.52539ZM5.525 2.52539C5.71326 2.33989 5.96695 2.23591 6.23125 2.23591C6.49555 2.23591 6.74924 2.33989 6.9375 2.52539C7.25 2.83164 7.41875 3.72539 7.48125 4.48164C6.725 4.41914 5.83125 4.25039 5.525 3.93789C5.3395 3.74963 5.23551 3.49594 5.23551 3.23164C5.23551 2.96734 5.3395 2.71366 5.525 2.52539ZM2.5 5.50039H7.5V7.50039H2.5V5.50039ZM3.5 8.50039H7.5V12.5004H3.5V8.50039ZM12.5 12.5004H8.5V8.50039H12.5V12.5004ZM13.5 7.50039H8.5V5.50039H13.5V7.50039Z" fill="#018EAA"/>
</svg>
