<svg width="24" height="24" viewBox="0 0 24 24" fill="none" xmlns="http://www.w3.org/2000/svg">
<path d="M20.25 6.7501H16.9688C17.4411 6.15355 17.6692 5.39978 17.6067 4.64141C17.5443 3.88304 17.1959 3.17675 16.6323 2.66554C16.0687 2.15433 15.3318 1.87641 14.571 1.88805C13.8101 1.89969 13.0821 2.20002 12.5344 2.72823C12.3134 2.95189 12.1327 3.21194 12 3.49698C11.8673 3.21194 11.6866 2.95189 11.4656 2.72823C10.9179 2.20002 10.1899 1.89969 9.42904 1.88805C8.66819 1.87641 7.93135 2.15433 7.36771 2.66554C6.80407 3.17675 6.45575 3.88304 6.39328 4.64141C6.33081 5.39978 6.55886 6.15355 7.03125 6.7501H3.75C3.35218 6.7501 2.97064 6.90814 2.68934 7.18944C2.40804 7.47075 2.25 7.85228 2.25 8.2501V11.2501C2.25 11.6479 2.40804 12.0295 2.68934 12.3108C2.97064 12.5921 3.35218 12.7501 3.75 12.7501V18.7501C3.75 19.1479 3.90804 19.5295 4.18934 19.8108C4.47064 20.0921 4.85218 20.2501 5.25 20.2501H18.75C19.1478 20.2501 19.5294 20.0921 19.8107 19.8108C20.092 19.5295 20.25 19.1479 20.25 18.7501V12.7501C20.6478 12.7501 21.0294 12.5921 21.3107 12.3108C21.592 12.0295 21.75 11.6479 21.75 11.2501V8.2501C21.75 7.85228 21.592 7.47075 21.3107 7.18944C21.0294 6.90814 20.6478 6.7501 20.25 6.7501ZM13.5938 3.7876C13.7302 3.63702 13.8958 3.51573 14.0805 3.43109C14.2653 3.34646 14.4653 3.30023 14.6684 3.29523C14.8715 3.29023 15.0736 3.32655 15.2622 3.402C15.4509 3.47744 15.6223 3.59044 15.766 3.73412C15.9097 3.8778 16.0227 4.04918 16.0981 4.23785C16.1735 4.42653 16.2099 4.62856 16.2049 4.8317C16.1999 5.03484 16.1536 5.23484 16.069 5.41957C15.9844 5.6043 15.8631 5.76991 15.7125 5.90635C15.2531 6.3751 13.9125 6.62823 12.7781 6.72198C12.8719 5.5876 13.125 4.24698 13.5938 3.7876ZM8.2875 3.7876C8.56989 3.50935 8.95043 3.35337 9.34687 3.35337C9.74332 3.35337 10.1239 3.50935 10.4062 3.7876C10.875 4.24698 11.1281 5.5876 11.2219 6.72198C10.0875 6.62823 8.74688 6.3751 8.2875 5.90635C8.00925 5.62396 7.85327 5.24342 7.85327 4.84698C7.85327 4.45053 8.00925 4.07 8.2875 3.7876ZM3.75 8.2501H11.25V11.2501H3.75V8.2501ZM5.25 12.7501H11.25V18.7501H5.25V12.7501ZM18.75 18.7501H12.75V12.7501H18.75V18.7501ZM20.25 11.2501H12.75V8.2501H20.25V11.2501Z" fill="#018EAA"/>
<path opacity="0.2" d="M20.5781 7.35937V10.3125L19.5 18.3375C19.5 18.6458 19.421 18.9415 19.2803 19.1595C19.1397 19.3775 18.9489 19.5 18.75 19.5H5.25C5.05109 19.5 4.86032 19.3775 4.71967 19.1595C4.57902 18.9415 4.5 18.6458 4.5 18.3375L3.51562 10.8281L3.09375 8.29687L4.35938 7.125L20.5781 7.35937Z" fill="#018EAA"/>
</svg>
