<svg width="327" height="144" viewBox="0 0 327 144" fill="none" xmlns="http://www.w3.org/2000/svg">
<g clip-path="url(#clip0_999_5006)">
<rect width="327" height="144" rx="14" fill="url(#paint0_linear_999_5006)"/>
<g clip-path="url(#clip1_999_5006)">
<rect width="227" height="227" rx="113.5" transform="matrix(-1 0 0 1 163 -41)" fill="#44CCCC"/>
<path d="M197.212 73.7434C210.625 75.7659 222.5 89.5 223.824 96.3686C231.258 134.948 178.511 193 178.511 193L82 189.19C82 189.19 120.573 62.1872 197.212 73.7434Z" fill="#4452B3"/>
<path d="M197.212 73.7434C210.625 75.7659 222.5 89.5 223.824 96.3686C231.258 134.948 178.511 193 178.511 193L82 189.19C82 189.19 120.573 62.1872 197.212 73.7434Z" fill="#4452B3"/>
<path d="M-33.6712 58.2566C-47.0844 56.2341 -58.959 42.5 -60.2825 35.6314C-67.7166 -2.94828 -14.9701 -61.0001 -14.9701 -61.0001L81.541 -57.1902C81.541 -57.1902 42.9676 69.8128 -33.6712 58.2566Z" fill="#4452B3"/>
<path d="M-33.6712 58.2566C-47.0844 56.2341 -58.959 42.5 -60.2825 35.6314C-67.7166 -2.94828 -14.9701 -61.0001 -14.9701 -61.0001L81.541 -57.1902C81.541 -57.1902 42.9676 69.8128 -33.6712 58.2566Z" fill="#4452B3"/>
<path d="M72.2913 76.5832C73.3743 76.5832 74.4129 76.153 75.1787 75.3872C75.9445 74.6214 76.3747 73.5828 76.3747 72.4998C76.3747 71.4169 75.9445 70.3783 75.1787 69.6125C74.4129 68.8467 73.3743 68.4165 72.2913 68.4165C71.2084 68.4165 70.1698 68.8467 69.404 69.6125C68.6382 70.3783 68.208 71.4169 68.208 72.4998C68.208 73.5828 68.6382 74.6214 69.404 75.3872C70.1698 76.153 71.2084 76.5832 72.2913 76.5832V76.5832Z" stroke="white" stroke-width="4.66667" stroke-linecap="round" stroke-linejoin="round"/>
<path d="M92.7083 76.5832C93.7913 76.5832 94.8299 76.153 95.5957 75.3872C96.3615 74.6214 96.7917 73.5828 96.7917 72.4998C96.7917 71.4169 96.3615 70.3783 95.5957 69.6125C94.8299 68.8467 93.7913 68.4165 92.7083 68.4165C91.6254 68.4165 90.5868 68.8467 89.821 69.6125C89.0552 70.3783 88.625 71.4169 88.625 72.4998C88.625 73.5828 89.0552 74.6214 89.821 75.3872C90.5868 76.153 91.6254 76.5832 92.7083 76.5832V76.5832Z" stroke="white" stroke-width="4.66667" stroke-linecap="round" stroke-linejoin="round"/>
<path d="M82.4993 66.3749C83.5823 66.3749 84.6209 65.9447 85.3867 65.1789C86.1525 64.4132 86.5827 63.3746 86.5827 62.2916C86.5827 61.2086 86.1525 60.17 85.3867 59.4042C84.6209 58.6385 83.5823 58.2083 82.4993 58.2083C81.4164 58.2083 80.3778 58.6385 79.612 59.4042C78.8462 60.17 78.416 61.2086 78.416 62.2916C78.416 63.3746 78.8462 64.4132 79.612 65.1789C80.3778 65.9447 81.4164 66.3749 82.4993 66.3749Z" stroke="white" stroke-width="4.66667" stroke-linecap="round" stroke-linejoin="round"/>
<path d="M82.4993 86.7917C83.5823 86.7917 84.6209 86.3615 85.3867 85.5957C86.1525 84.8299 86.5827 83.7913 86.5827 82.7083C86.5827 81.6254 86.1525 80.5868 85.3867 79.821C84.6209 79.0552 83.5823 78.625 82.4993 78.625C81.4164 78.625 80.3778 79.0552 79.612 79.821C78.8462 80.5868 78.416 81.6254 78.416 82.7083C78.416 83.7913 78.8462 84.8299 79.612 85.5957C80.3778 86.3615 81.4164 86.7917 82.4993 86.7917Z" stroke="white" stroke-width="4.66667" stroke-linecap="round" stroke-linejoin="round"/>
<path d="M62.083 72.4999V92.9166M62.083 72.4999C62.083 83.776 71.2235 92.9166 82.4997 92.9166C93.7758 92.9166 102.916 83.776 102.916 72.4999C102.916 61.2238 93.7758 52.0833 82.4997 52.0833C71.2235 52.0833 62.083 61.2238 62.083 72.4999Z" stroke="white" stroke-width="4.66667" stroke-linecap="round" stroke-linejoin="round"/>
</g>
<path d="M249.457 34.1C249.457 33.1387 249.671 32.28 250.101 31.524C250.539 30.7587 251.132 30.166 251.879 29.746C252.635 29.3167 253.479 29.102 254.413 29.102C255.505 29.102 256.461 29.382 257.283 29.942C258.104 30.502 258.678 31.2767 259.005 32.266H256.751C256.527 31.7993 256.209 31.4493 255.799 31.216C255.397 30.9827 254.931 30.866 254.399 30.866C253.829 30.866 253.321 31.0013 252.873 31.272C252.434 31.5333 252.089 31.9067 251.837 32.392C251.594 32.8773 251.473 33.4467 251.473 34.1C251.473 34.744 251.594 35.3133 251.837 35.808C252.089 36.2933 252.434 36.6713 252.873 36.942C253.321 37.2033 253.829 37.334 254.399 37.334C254.931 37.334 255.397 37.2173 255.799 36.984C256.209 36.7413 256.527 36.3867 256.751 35.92H259.005C258.678 36.9187 258.104 37.698 257.283 38.258C256.471 38.8087 255.514 39.084 254.413 39.084C253.479 39.084 252.635 38.874 251.879 38.454C251.132 38.0247 250.539 37.432 250.101 36.676C249.671 35.92 249.457 35.0613 249.457 34.1ZM261.673 30.32C261.328 30.32 261.038 30.2127 260.805 29.998C260.581 29.774 260.469 29.4987 260.469 29.172C260.469 28.8453 260.581 28.5747 260.805 28.36C261.038 28.136 261.328 28.024 261.673 28.024C262.018 28.024 262.303 28.136 262.527 28.36C262.76 28.5747 262.877 28.8453 262.877 29.172C262.877 29.4987 262.76 29.774 262.527 29.998C262.303 30.2127 262.018 30.32 261.673 30.32ZM262.639 31.244V39H260.679V31.244H262.639ZM268.873 31.132C269.797 31.132 270.544 31.426 271.113 32.014C271.683 32.5927 271.967 33.4047 271.967 34.45V39H270.007V34.716C270.007 34.1 269.853 33.6287 269.545 33.302C269.237 32.966 268.817 32.798 268.285 32.798C267.744 32.798 267.315 32.966 266.997 33.302C266.689 33.6287 266.535 34.1 266.535 34.716V39H264.575V31.244H266.535V32.21C266.797 31.874 267.128 31.6127 267.529 31.426C267.94 31.23 268.388 31.132 268.873 31.132ZM281.041 34.954C281.041 35.234 281.023 35.486 280.985 35.71H275.315C275.362 36.27 275.558 36.7087 275.903 37.026C276.249 37.3433 276.673 37.502 277.177 37.502C277.905 37.502 278.423 37.1893 278.731 36.564H280.845C280.621 37.3107 280.192 37.9267 279.557 38.412C278.923 38.888 278.143 39.126 277.219 39.126C276.473 39.126 275.801 38.9627 275.203 38.636C274.615 38.3 274.153 37.8287 273.817 37.222C273.491 36.6153 273.327 35.9153 273.327 35.122C273.327 34.3193 273.491 33.6147 273.817 33.008C274.144 32.4013 274.601 31.9347 275.189 31.608C275.777 31.2813 276.454 31.118 277.219 31.118C277.957 31.118 278.615 31.2767 279.193 31.594C279.781 31.9113 280.234 32.364 280.551 32.952C280.878 33.5307 281.041 34.198 281.041 34.954ZM279.011 34.394C279.002 33.89 278.82 33.4887 278.465 33.19C278.111 32.882 277.677 32.728 277.163 32.728C276.678 32.728 276.267 32.8773 275.931 33.176C275.605 33.4653 275.404 33.8713 275.329 34.394H279.011ZM292.104 31.132C293.056 31.132 293.821 31.426 294.4 32.014C294.988 32.5927 295.282 33.4047 295.282 34.45V39H293.322V34.716C293.322 34.1093 293.168 33.6473 292.86 33.33C292.552 33.0033 292.132 32.84 291.6 32.84C291.068 32.84 290.643 33.0033 290.326 33.33C290.018 33.6473 289.864 34.1093 289.864 34.716V39H287.904V34.716C287.904 34.1093 287.75 33.6473 287.442 33.33C287.134 33.0033 286.714 32.84 286.182 32.84C285.641 32.84 285.211 33.0033 284.894 33.33C284.586 33.6473 284.432 34.1093 284.432 34.716V39H282.472V31.244H284.432V32.182C284.684 31.8553 285.006 31.5987 285.398 31.412C285.799 31.2253 286.238 31.132 286.714 31.132C287.321 31.132 287.862 31.2627 288.338 31.524C288.814 31.776 289.183 32.14 289.444 32.616C289.696 32.168 290.06 31.8087 290.536 31.538C291.021 31.2673 291.544 31.132 292.104 31.132ZM296.638 35.094C296.638 34.31 296.792 33.6147 297.1 33.008C297.417 32.4013 297.842 31.9347 298.374 31.608C298.915 31.2813 299.517 31.118 300.18 31.118C300.758 31.118 301.262 31.2347 301.692 31.468C302.13 31.7013 302.48 31.9953 302.742 32.35V31.244H304.716V39H302.742V37.866C302.49 38.23 302.14 38.5333 301.692 38.776C301.253 39.0093 300.744 39.126 300.166 39.126C299.512 39.126 298.915 38.958 298.374 38.622C297.842 38.286 297.417 37.8147 297.1 37.208C296.792 36.592 296.638 35.8873 296.638 35.094ZM302.742 35.122C302.742 34.646 302.648 34.24 302.462 33.904C302.275 33.5587 302.023 33.2973 301.706 33.12C301.388 32.9333 301.048 32.84 300.684 32.84C300.32 32.84 299.984 32.9287 299.676 33.106C299.368 33.2833 299.116 33.5447 298.92 33.89C298.733 34.226 298.64 34.6273 298.64 35.094C298.64 35.5607 298.733 35.9713 298.92 36.326C299.116 36.6713 299.368 36.9373 299.676 37.124C299.993 37.3107 300.329 37.404 300.684 37.404C301.048 37.404 301.388 37.3153 301.706 37.138C302.023 36.9513 302.275 36.69 302.462 36.354C302.648 36.0087 302.742 35.598 302.742 35.122ZM219.898 56.094C219.898 55.31 220.052 54.6147 220.36 54.008C220.677 53.4013 221.106 52.9347 221.648 52.608C222.189 52.2813 222.791 52.118 223.454 52.118C223.958 52.118 224.438 52.23 224.896 52.454C225.353 52.6687 225.717 52.958 225.988 53.322V49.64H227.976V60H225.988V58.852C225.745 59.2347 225.404 59.5427 224.966 59.776C224.527 60.0093 224.018 60.126 223.44 60.126C222.786 60.126 222.189 59.958 221.648 59.622C221.106 59.286 220.677 58.8147 220.36 58.208C220.052 57.592 219.898 56.8873 219.898 56.094ZM226.002 56.122C226.002 55.646 225.908 55.24 225.722 54.904C225.535 54.5587 225.283 54.2973 224.966 54.12C224.648 53.9333 224.308 53.84 223.944 53.84C223.58 53.84 223.244 53.9287 222.936 54.106C222.628 54.2833 222.376 54.5447 222.18 54.89C221.993 55.226 221.9 55.6273 221.9 56.094C221.9 56.5607 221.993 56.9713 222.18 57.326C222.376 57.6713 222.628 57.9373 222.936 58.124C223.253 58.3107 223.589 58.404 223.944 58.404C224.308 58.404 224.648 58.3153 224.966 58.138C225.283 57.9513 225.535 57.69 225.722 57.354C225.908 57.0087 226.002 56.598 226.002 56.122ZM233.334 60.126C232.587 60.126 231.915 59.9627 231.318 59.636C230.72 59.3 230.249 58.8287 229.904 58.222C229.568 57.6153 229.4 56.9153 229.4 56.122C229.4 55.3287 229.572 54.6287 229.918 54.022C230.272 53.4153 230.753 52.9487 231.36 52.622C231.966 52.286 232.643 52.118 233.39 52.118C234.136 52.118 234.813 52.286 235.42 52.622C236.026 52.9487 236.502 53.4153 236.848 54.022C237.202 54.6287 237.38 55.3287 237.38 56.122C237.38 56.9153 237.198 57.6153 236.834 58.222C236.479 58.8287 235.994 59.3 235.378 59.636C234.771 59.9627 234.09 60.126 233.334 60.126ZM233.334 58.418C233.688 58.418 234.02 58.334 234.328 58.166C234.645 57.9887 234.897 57.7273 235.084 57.382C235.27 57.0367 235.364 56.6167 235.364 56.122C235.364 55.3847 235.168 54.82 234.776 54.428C234.393 54.0267 233.922 53.826 233.362 53.826C232.802 53.826 232.33 54.0267 231.948 54.428C231.574 54.82 231.388 55.3847 231.388 56.122C231.388 56.8593 231.57 57.4287 231.934 57.83C232.307 58.222 232.774 58.418 233.334 58.418ZM239.812 51.32C239.466 51.32 239.177 51.2127 238.944 50.998C238.72 50.774 238.608 50.4987 238.608 50.172C238.608 49.8453 238.72 49.5747 238.944 49.36C239.177 49.136 239.466 49.024 239.812 49.024C240.157 49.024 240.442 49.136 240.666 49.36C240.899 49.5747 241.016 49.8453 241.016 50.172C241.016 50.4987 240.899 50.774 240.666 50.998C240.442 51.2127 240.157 51.32 239.812 51.32ZM240.778 52.244V60H238.818V52.244H240.778ZM245.682 60.126C245.047 60.126 244.478 60.014 243.974 59.79C243.47 59.5567 243.069 59.244 242.77 58.852C242.481 58.46 242.322 58.026 242.294 57.55H244.268C244.305 57.8487 244.45 58.096 244.702 58.292C244.963 58.488 245.285 58.586 245.668 58.586C246.041 58.586 246.331 58.5113 246.536 58.362C246.751 58.2127 246.858 58.0213 246.858 57.788C246.858 57.536 246.727 57.3493 246.466 57.228C246.214 57.0973 245.808 56.9573 245.248 56.808C244.669 56.668 244.193 56.5233 243.82 56.374C243.456 56.2247 243.139 55.996 242.868 55.688C242.607 55.38 242.476 54.9647 242.476 54.442C242.476 54.0127 242.597 53.6207 242.84 53.266C243.092 52.9113 243.447 52.6313 243.904 52.426C244.371 52.2207 244.917 52.118 245.542 52.118C246.466 52.118 247.203 52.3513 247.754 52.818C248.305 53.2753 248.608 53.896 248.664 54.68H246.788C246.76 54.372 246.629 54.1293 246.396 53.952C246.172 53.7653 245.869 53.672 245.486 53.672C245.131 53.672 244.856 53.7373 244.66 53.868C244.473 53.9987 244.38 54.1807 244.38 54.414C244.38 54.6753 244.511 54.876 244.772 55.016C245.033 55.1467 245.439 55.282 245.99 55.422C246.55 55.562 247.012 55.7067 247.376 55.856C247.74 56.0053 248.053 56.2387 248.314 56.556C248.585 56.864 248.725 57.2747 248.734 57.788C248.734 58.236 248.608 58.6373 248.356 58.992C248.113 59.3467 247.759 59.6267 247.292 59.832C246.835 60.028 246.298 60.126 245.682 60.126ZM255.639 53.364C255.891 53.0093 256.236 52.7153 256.675 52.482C257.123 52.2393 257.632 52.118 258.201 52.118C258.864 52.118 259.461 52.2813 259.993 52.608C260.534 52.9347 260.959 53.4013 261.267 54.008C261.584 54.6053 261.743 55.3007 261.743 56.094C261.743 56.8873 261.584 57.592 261.267 58.208C260.959 58.8147 260.534 59.286 259.993 59.622C259.461 59.958 258.864 60.126 258.201 60.126C257.632 60.126 257.128 60.0093 256.689 59.776C256.26 59.5427 255.91 59.2487 255.639 58.894V63.696H253.679V52.244H255.639V53.364ZM259.741 56.094C259.741 55.6273 259.643 55.226 259.447 54.89C259.26 54.5447 259.008 54.2833 258.691 54.106C258.383 53.9287 258.047 53.84 257.683 53.84C257.328 53.84 256.992 53.9333 256.675 54.12C256.367 54.2973 256.115 54.5587 255.919 54.904C255.732 55.2493 255.639 55.6553 255.639 56.122C255.639 56.5887 255.732 56.9947 255.919 57.34C256.115 57.6853 256.367 57.9513 256.675 58.138C256.992 58.3153 257.328 58.404 257.683 58.404C258.047 58.404 258.383 58.3107 258.691 58.124C259.008 57.9373 259.26 57.6713 259.447 57.326C259.643 56.9807 259.741 56.57 259.741 56.094ZM266.611 60.126C265.865 60.126 265.193 59.9627 264.595 59.636C263.998 59.3 263.527 58.8287 263.181 58.222C262.845 57.6153 262.677 56.9153 262.677 56.122C262.677 55.3287 262.85 54.6287 263.195 54.022C263.55 53.4153 264.031 52.9487 264.637 52.622C265.244 52.286 265.921 52.118 266.667 52.118C267.414 52.118 268.091 52.286 268.697 52.622C269.304 52.9487 269.78 53.4153 270.125 54.022C270.48 54.6287 270.657 55.3287 270.657 56.122C270.657 56.9153 270.475 57.6153 270.111 58.222C269.757 58.8287 269.271 59.3 268.655 59.636C268.049 59.9627 267.367 60.126 266.611 60.126ZM266.611 58.418C266.966 58.418 267.297 58.334 267.605 58.166C267.923 57.9887 268.175 57.7273 268.361 57.382C268.548 57.0367 268.641 56.6167 268.641 56.122C268.641 55.3847 268.445 54.82 268.053 54.428C267.671 54.0267 267.199 53.826 266.639 53.826C266.079 53.826 265.608 54.0267 265.225 54.428C264.852 54.82 264.665 55.3847 264.665 56.122C264.665 56.8593 264.847 57.4287 265.211 57.83C265.585 58.222 266.051 58.418 266.611 58.418ZM274.055 53.448C274.307 53.0373 274.634 52.7153 275.035 52.482C275.446 52.2487 275.912 52.132 276.435 52.132V54.19H275.917C275.301 54.19 274.834 54.3347 274.517 54.624C274.209 54.9133 274.055 55.4173 274.055 56.136V60H272.095V52.244H274.055V53.448ZM288.413 52.244V60H286.439V59.02C286.187 59.356 285.856 59.622 285.445 59.818C285.044 60.0047 284.605 60.098 284.129 60.098C283.522 60.098 282.986 59.972 282.519 59.72C282.052 59.4587 281.684 59.0807 281.413 58.586C281.152 58.082 281.021 57.4847 281.021 56.794V52.244H282.981V56.514C282.981 57.13 283.135 57.606 283.443 57.942C283.751 58.2687 284.171 58.432 284.703 58.432C285.244 58.432 285.669 58.2687 285.977 57.942C286.285 57.606 286.439 57.13 286.439 56.514V52.244H288.413ZM299.979 52.132C300.931 52.132 301.696 52.426 302.275 53.014C302.863 53.5927 303.157 54.4047 303.157 55.45V60H301.197V55.716C301.197 55.1093 301.043 54.6473 300.735 54.33C300.427 54.0033 300.007 53.84 299.475 53.84C298.943 53.84 298.518 54.0033 298.201 54.33C297.893 54.6473 297.739 55.1093 297.739 55.716V60H295.779V55.716C295.779 55.1093 295.625 54.6473 295.317 54.33C295.009 54.0033 294.589 53.84 294.057 53.84C293.516 53.84 293.086 54.0033 292.769 54.33C292.461 54.6473 292.307 55.1093 292.307 55.716V60H290.347V52.244H292.307V53.182C292.559 52.8553 292.881 52.5987 293.273 52.412C293.674 52.2253 294.113 52.132 294.589 52.132C295.196 52.132 295.737 52.2627 296.213 52.524C296.689 52.776 297.058 53.14 297.319 53.616C297.571 53.168 297.935 52.8087 298.411 52.538C298.896 52.2673 299.419 52.132 299.979 52.132ZM307.551 50.06L307.327 56.822H305.675L305.437 50.06H307.551ZM306.543 60.098C306.188 60.098 305.894 59.9907 305.661 59.776C305.437 59.552 305.325 59.2767 305.325 58.95C305.325 58.6233 305.437 58.3527 305.661 58.138C305.894 57.914 306.188 57.802 306.543 57.802C306.888 57.802 307.173 57.914 307.397 58.138C307.621 58.3527 307.733 58.6233 307.733 58.95C307.733 59.2767 307.621 59.552 307.397 59.776C307.173 59.9907 306.888 60.098 306.543 60.098Z" fill="#2B2B2B"/>
<path d="M275.7 91.084C274.924 91.084 274.208 90.904 273.552 90.544C272.904 90.176 272.388 89.668 272.004 89.02C271.628 88.364 271.44 87.628 271.44 86.812C271.44 85.996 271.628 85.264 272.004 84.616C272.388 83.968 272.904 83.464 273.552 83.104C274.208 82.736 274.924 82.552 275.7 82.552C276.484 82.552 277.2 82.736 277.848 83.104C278.504 83.464 279.02 83.968 279.396 84.616C279.772 85.264 279.96 85.996 279.96 86.812C279.96 87.628 279.772 88.364 279.396 89.02C279.02 89.668 278.504 90.176 277.848 90.544C277.2 90.904 276.484 91.084 275.7 91.084ZM275.7 89.896C276.252 89.896 276.744 89.772 277.176 89.524C277.608 89.268 277.944 88.908 278.184 88.444C278.432 87.972 278.556 87.428 278.556 86.812C278.556 86.196 278.432 85.656 278.184 85.192C277.944 84.728 277.608 84.372 277.176 84.124C276.744 83.876 276.252 83.752 275.7 83.752C275.148 83.752 274.656 83.876 274.224 84.124C273.792 84.372 273.452 84.728 273.204 85.192C272.964 85.656 272.844 86.196 272.844 86.812C272.844 87.428 272.964 87.972 273.204 88.444C273.452 88.908 273.792 89.268 274.224 89.524C274.656 89.772 275.148 89.896 275.7 89.896ZM284.078 85.504H282.854V91H281.474V85.504H280.694V84.388H281.474V83.92C281.474 83.16 281.674 82.608 282.074 82.264C282.482 81.912 283.118 81.736 283.982 81.736V82.876C283.566 82.876 283.274 82.956 283.106 83.116C282.938 83.268 282.854 83.536 282.854 83.92V84.388H284.078V85.504ZM291.351 87.532C291.351 87.78 291.335 88.004 291.303 88.204H286.251C286.291 88.732 286.487 89.156 286.839 89.476C287.191 89.796 287.623 89.956 288.135 89.956C288.871 89.956 289.391 89.648 289.695 89.032H291.171C290.971 89.64 290.607 90.14 290.079 90.532C289.559 90.916 288.911 91.108 288.135 91.108C287.503 91.108 286.935 90.968 286.431 90.688C285.935 90.4 285.543 90 285.255 89.488C284.975 88.968 284.835 88.368 284.835 87.688C284.835 87.008 284.971 86.412 285.243 85.9C285.523 85.38 285.911 84.98 286.407 84.7C286.911 84.42 287.487 84.28 288.135 84.28C288.759 84.28 289.315 84.416 289.803 84.688C290.291 84.96 290.671 85.344 290.943 85.84C291.215 86.328 291.351 86.892 291.351 87.532ZM289.923 87.1C289.915 86.596 289.735 86.192 289.383 85.888C289.031 85.584 288.595 85.432 288.075 85.432C287.603 85.432 287.199 85.584 286.863 85.888C286.527 86.184 286.327 86.588 286.263 87.1H289.923ZM294.065 85.348C294.265 85.012 294.529 84.752 294.857 84.568C295.193 84.376 295.589 84.28 296.045 84.28V85.696H295.697C295.161 85.696 294.753 85.832 294.473 86.104C294.201 86.376 294.065 86.848 294.065 87.52V91H292.697V84.388H294.065V85.348ZM298.898 85.504V89.164C298.898 89.412 298.954 89.592 299.066 89.704C299.186 89.808 299.386 89.86 299.666 89.86H300.506V91H299.426C298.81 91 298.338 90.856 298.01 90.568C297.682 90.28 297.518 89.812 297.518 89.164V85.504H296.738V84.388H297.518V82.744H298.898V84.388H300.506V85.504H298.898ZM301.311 87.664C301.311 87 301.447 86.412 301.719 85.9C301.999 85.388 302.375 84.992 302.847 84.712C303.327 84.424 303.855 84.28 304.431 84.28C304.951 84.28 305.403 84.384 305.787 84.592C306.179 84.792 306.491 85.044 306.723 85.348V84.388H308.103V91H306.723V90.016C306.491 90.328 306.175 90.588 305.775 90.796C305.375 91.004 304.919 91.108 304.407 91.108C303.839 91.108 303.319 90.964 302.847 90.676C302.375 90.38 301.999 89.972 301.719 89.452C301.447 88.924 301.311 88.328 301.311 87.664ZM306.723 87.688C306.723 87.232 306.627 86.836 306.435 86.5C306.251 86.164 306.007 85.908 305.703 85.732C305.399 85.556 305.071 85.468 304.719 85.468C304.367 85.468 304.039 85.556 303.735 85.732C303.431 85.9 303.183 86.152 302.991 86.488C302.807 86.816 302.715 87.208 302.715 87.664C302.715 88.12 302.807 88.52 302.991 88.864C303.183 89.208 303.431 89.472 303.735 89.656C304.047 89.832 304.375 89.92 304.719 89.92C305.071 89.92 305.399 89.832 305.703 89.656C306.007 89.48 306.251 89.224 306.435 88.888C306.627 88.544 306.723 88.144 306.723 87.688Z" fill="#2B2B2B"/>
<path d="M173.823 107.776L175.695 102.388H177.147L174.627 109H172.995L170.487 102.388H171.951L173.823 107.776ZM177.725 105.664C177.725 105 177.861 104.412 178.133 103.9C178.413 103.388 178.789 102.992 179.261 102.712C179.741 102.424 180.269 102.28 180.845 102.28C181.365 102.28 181.817 102.384 182.201 102.592C182.593 102.792 182.905 103.044 183.137 103.348V102.388H184.517V109H183.137V108.016C182.905 108.328 182.589 108.588 182.189 108.796C181.789 109.004 181.333 109.108 180.821 109.108C180.253 109.108 179.733 108.964 179.261 108.676C178.789 108.38 178.413 107.972 178.133 107.452C177.861 106.924 177.725 106.328 177.725 105.664ZM183.137 105.688C183.137 105.232 183.041 104.836 182.849 104.5C182.665 104.164 182.421 103.908 182.117 103.732C181.813 103.556 181.485 103.468 181.133 103.468C180.781 103.468 180.453 103.556 180.149 103.732C179.845 103.9 179.597 104.152 179.405 104.488C179.221 104.816 179.129 105.208 179.129 105.664C179.129 106.12 179.221 106.52 179.405 106.864C179.597 107.208 179.845 107.472 180.149 107.656C180.461 107.832 180.789 107.92 181.133 107.92C181.485 107.92 181.813 107.832 182.117 107.656C182.421 107.48 182.665 107.224 182.849 106.888C183.041 106.544 183.137 106.144 183.137 105.688ZM182.585 100.612L179.933 101.92V100.912L182.585 99.448V100.612ZM187.682 100.12V109H186.314V100.12H187.682ZM190.174 101.512C189.926 101.512 189.718 101.428 189.55 101.26C189.382 101.092 189.298 100.884 189.298 100.636C189.298 100.388 189.382 100.18 189.55 100.012C189.718 99.844 189.926 99.76 190.174 99.76C190.414 99.76 190.618 99.844 190.786 100.012C190.954 100.18 191.038 100.388 191.038 100.636C191.038 100.884 190.954 101.092 190.786 101.26C190.618 101.428 190.414 101.512 190.174 101.512ZM190.846 102.388V109H189.478V102.388H190.846ZM192.186 105.664C192.186 105 192.322 104.412 192.594 103.9C192.874 103.388 193.25 102.992 193.722 102.712C194.202 102.424 194.734 102.28 195.318 102.28C195.75 102.28 196.174 102.376 196.59 102.568C197.014 102.752 197.35 103 197.598 103.312V100.12H198.978V109H197.598V108.004C197.374 108.324 197.062 108.588 196.662 108.796C196.27 109.004 195.818 109.108 195.306 109.108C194.73 109.108 194.202 108.964 193.722 108.676C193.25 108.38 192.874 107.972 192.594 107.452C192.322 106.924 192.186 106.328 192.186 105.664ZM197.598 105.688C197.598 105.232 197.502 104.836 197.31 104.5C197.126 104.164 196.882 103.908 196.578 103.732C196.274 103.556 195.946 103.468 195.594 103.468C195.242 103.468 194.914 103.556 194.61 103.732C194.306 103.9 194.058 104.152 193.866 104.488C193.682 104.816 193.59 105.208 193.59 105.664C193.59 106.12 193.682 106.52 193.866 106.864C194.058 107.208 194.306 107.472 194.61 107.656C194.922 107.832 195.25 107.92 195.594 107.92C195.946 107.92 196.274 107.832 196.578 107.656C196.882 107.48 197.126 107.224 197.31 106.888C197.502 106.544 197.598 106.144 197.598 105.688ZM200.319 105.664C200.319 105 200.455 104.412 200.727 103.9C201.007 103.388 201.383 102.992 201.855 102.712C202.335 102.424 202.863 102.28 203.439 102.28C203.959 102.28 204.411 102.384 204.795 102.592C205.187 102.792 205.499 103.044 205.731 103.348V102.388H207.111V109H205.731V108.016C205.499 108.328 205.183 108.588 204.783 108.796C204.383 109.004 203.927 109.108 203.415 109.108C202.847 109.108 202.327 108.964 201.855 108.676C201.383 108.38 201.007 107.972 200.727 107.452C200.455 106.924 200.319 106.328 200.319 105.664ZM205.731 105.688C205.731 105.232 205.635 104.836 205.443 104.5C205.259 104.164 205.015 103.908 204.711 103.732C204.407 103.556 204.079 103.468 203.727 103.468C203.375 103.468 203.047 103.556 202.743 103.732C202.439 103.9 202.191 104.152 201.999 104.488C201.815 104.816 201.723 105.208 201.723 105.664C201.723 106.12 201.815 106.52 201.999 106.864C202.191 107.208 202.439 107.472 202.743 107.656C203.055 107.832 203.383 107.92 203.727 107.92C204.079 107.92 204.407 107.832 204.711 107.656C205.015 107.48 205.259 107.224 205.443 106.888C205.635 106.544 205.731 106.144 205.731 105.688ZM211.569 105.664C211.569 105 211.705 104.412 211.977 103.9C212.257 103.388 212.633 102.992 213.105 102.712C213.585 102.424 214.113 102.28 214.689 102.28C215.209 102.28 215.661 102.384 216.045 102.592C216.437 102.792 216.749 103.044 216.981 103.348V102.388H218.361V109H216.981V108.016C216.749 108.328 216.433 108.588 216.033 108.796C215.633 109.004 215.177 109.108 214.665 109.108C214.097 109.108 213.577 108.964 213.105 108.676C212.633 108.38 212.257 107.972 211.977 107.452C211.705 106.924 211.569 106.328 211.569 105.664ZM216.981 105.688C216.981 105.232 216.885 104.836 216.693 104.5C216.509 104.164 216.265 103.908 215.961 103.732C215.657 103.556 215.329 103.468 214.977 103.468C214.625 103.468 214.297 103.556 213.993 103.732C213.689 103.9 213.441 104.152 213.249 104.488C213.065 104.816 212.973 105.208 212.973 105.664C212.973 106.12 213.065 106.52 213.249 106.864C213.441 107.208 213.689 107.472 213.993 107.656C214.305 107.832 214.633 107.92 214.977 107.92C215.329 107.92 215.657 107.832 215.961 107.656C216.265 107.48 216.509 107.224 216.693 106.888C216.885 106.544 216.981 106.144 216.981 105.688ZM221.754 103.504V107.164C221.754 107.412 221.81 107.592 221.922 107.704C222.042 107.808 222.242 107.86 222.522 107.86H223.362V109H222.282C221.666 109 221.194 108.856 220.866 108.568C220.538 108.28 220.374 107.812 220.374 107.164V103.504H219.594V102.388H220.374V100.744H221.754V102.388H223.362V103.504H221.754ZM230.683 105.532C230.683 105.78 230.667 106.004 230.635 106.204H225.583C225.623 106.732 225.819 107.156 226.171 107.476C226.523 107.796 226.955 107.956 227.467 107.956C228.203 107.956 228.723 107.648 229.027 107.032H230.503C230.303 107.64 229.939 108.14 229.411 108.532C228.891 108.916 228.243 109.108 227.467 109.108C226.835 109.108 226.267 108.968 225.763 108.688C225.267 108.4 224.875 108 224.587 107.488C224.307 106.968 224.167 106.368 224.167 105.688C224.167 105.008 224.303 104.412 224.575 103.9C224.855 103.38 225.243 102.98 225.739 102.7C226.243 102.42 226.819 102.28 227.467 102.28C228.091 102.28 228.647 102.416 229.135 102.688C229.623 102.96 230.003 103.344 230.275 103.84C230.547 104.328 230.683 104.892 230.683 105.532ZM229.255 105.1C229.247 104.596 229.067 104.192 228.715 103.888C228.363 103.584 227.927 103.432 227.407 103.432C226.935 103.432 226.531 103.584 226.195 103.888C225.859 104.184 225.659 104.588 225.595 105.1H229.255ZM228.667 100.612L226.015 101.92V100.912L228.667 99.448V100.612ZM234.942 102.412C234.99 101.668 235.274 101.088 235.794 100.672C236.322 100.256 236.994 100.048 237.81 100.048C238.37 100.048 238.854 100.148 239.262 100.348C239.67 100.548 239.978 100.82 240.186 101.164C240.394 101.508 240.498 101.896 240.498 102.328C240.498 102.824 240.366 103.248 240.102 103.6C239.838 103.952 239.522 104.188 239.154 104.308V104.356C239.626 104.5 239.994 104.764 240.258 105.148C240.522 105.524 240.654 106.008 240.654 106.6C240.654 107.072 240.546 107.492 240.33 107.86C240.114 108.228 239.794 108.52 239.37 108.736C238.946 108.944 238.438 109.048 237.846 109.048C236.982 109.048 236.27 108.828 235.71 108.388C235.158 107.94 234.862 107.3 234.822 106.468H236.142C236.174 106.892 236.338 107.24 236.634 107.512C236.93 107.776 237.33 107.908 237.834 107.908C238.322 107.908 238.698 107.776 238.962 107.512C239.226 107.24 239.358 106.892 239.358 106.468C239.358 105.908 239.178 105.512 238.818 105.28C238.466 105.04 237.922 104.92 237.186 104.92H236.874V103.792H237.198C237.846 103.784 238.338 103.676 238.674 103.468C239.018 103.26 239.19 102.932 239.19 102.484C239.19 102.1 239.066 101.796 238.818 101.572C238.57 101.34 238.218 101.224 237.762 101.224C237.314 101.224 236.966 101.34 236.718 101.572C236.47 101.796 236.322 102.076 236.274 102.412H234.942ZM242.091 104.512C242.091 103.128 242.323 102.048 242.787 101.272C243.259 100.488 244.067 100.096 245.211 100.096C246.355 100.096 247.159 100.488 247.623 101.272C248.095 102.048 248.331 103.128 248.331 104.512C248.331 105.912 248.095 107.008 247.623 107.8C247.159 108.584 246.355 108.976 245.211 108.976C244.067 108.976 243.259 108.584 242.787 107.8C242.323 107.008 242.091 105.912 242.091 104.512ZM246.987 104.512C246.987 103.864 246.943 103.316 246.855 102.868C246.775 102.42 246.607 102.056 246.351 101.776C246.095 101.488 245.715 101.344 245.211 101.344C244.707 101.344 244.327 101.488 244.071 101.776C243.815 102.056 243.643 102.42 243.555 102.868C243.475 103.316 243.435 103.864 243.435 104.512C243.435 105.184 243.475 105.748 243.555 106.204C243.635 106.66 243.803 107.028 244.059 107.308C244.323 107.588 244.707 107.728 245.211 107.728C245.715 107.728 246.095 107.588 246.351 107.308C246.615 107.028 246.787 106.66 246.867 106.204C246.947 105.748 246.987 105.184 246.987 104.512ZM252.62 105.664C252.62 105 252.756 104.412 253.028 103.9C253.308 103.388 253.684 102.992 254.156 102.712C254.636 102.424 255.168 102.28 255.752 102.28C256.184 102.28 256.608 102.376 257.024 102.568C257.448 102.752 257.784 103 258.032 103.312V100.12H259.412V109H258.032V108.004C257.808 108.324 257.496 108.588 257.096 108.796C256.704 109.004 256.252 109.108 255.74 109.108C255.164 109.108 254.636 108.964 254.156 108.676C253.684 108.38 253.308 107.972 253.028 107.452C252.756 106.924 252.62 106.328 252.62 105.664ZM258.032 105.688C258.032 105.232 257.936 104.836 257.744 104.5C257.56 104.164 257.316 103.908 257.012 103.732C256.708 103.556 256.38 103.468 256.028 103.468C255.676 103.468 255.348 103.556 255.044 103.732C254.74 103.9 254.492 104.152 254.3 104.488C254.116 104.816 254.024 105.208 254.024 105.664C254.024 106.12 254.116 106.52 254.3 106.864C254.492 107.208 254.74 107.472 255.044 107.656C255.356 107.832 255.684 107.92 256.028 107.92C256.38 107.92 256.708 107.832 257.012 107.656C257.316 107.48 257.56 107.224 257.744 106.888C257.936 106.544 258.032 106.144 258.032 105.688ZM267.269 105.532C267.269 105.78 267.253 106.004 267.221 106.204H262.169C262.209 106.732 262.405 107.156 262.757 107.476C263.109 107.796 263.541 107.956 264.053 107.956C264.789 107.956 265.309 107.648 265.613 107.032H267.089C266.889 107.64 266.525 108.14 265.997 108.532C265.477 108.916 264.829 109.108 264.053 109.108C263.421 109.108 262.853 108.968 262.349 108.688C261.853 108.4 261.461 108 261.173 107.488C260.893 106.968 260.753 106.368 260.753 105.688C260.753 105.008 260.889 104.412 261.161 103.9C261.441 103.38 261.829 102.98 262.325 102.7C262.829 102.42 263.405 102.28 264.053 102.28C264.677 102.28 265.233 102.416 265.721 102.688C266.209 102.96 266.589 103.344 266.861 103.84C267.133 104.328 267.269 104.892 267.269 105.532ZM265.841 105.1C265.833 104.596 265.653 104.192 265.301 103.888C264.949 103.584 264.513 103.432 263.993 103.432C263.521 103.432 263.117 103.584 262.781 103.888C262.445 104.184 262.245 104.588 262.181 105.1H265.841ZM280.516 100.66V109H279.148V103.288L276.604 109H275.656L273.1 103.288V109H271.732V100.66H273.208L276.136 107.2L279.052 100.66H280.516ZM281.858 105.664C281.858 105 281.994 104.412 282.266 103.9C282.546 103.388 282.922 102.992 283.394 102.712C283.874 102.424 284.402 102.28 284.978 102.28C285.498 102.28 285.95 102.384 286.334 102.592C286.726 102.792 287.038 103.044 287.27 103.348V102.388H288.65V109H287.27V108.016C287.038 108.328 286.722 108.588 286.322 108.796C285.922 109.004 285.466 109.108 284.954 109.108C284.386 109.108 283.866 108.964 283.394 108.676C282.922 108.38 282.546 107.972 282.266 107.452C281.994 106.924 281.858 106.328 281.858 105.664ZM287.27 105.688C287.27 105.232 287.174 104.836 286.982 104.5C286.798 104.164 286.554 103.908 286.25 103.732C285.946 103.556 285.618 103.468 285.266 103.468C284.914 103.468 284.586 103.556 284.282 103.732C283.978 103.9 283.73 104.152 283.538 104.488C283.354 104.816 283.262 105.208 283.262 105.664C283.262 106.12 283.354 106.52 283.538 106.864C283.73 107.208 283.978 107.472 284.282 107.656C284.594 107.832 284.922 107.92 285.266 107.92C285.618 107.92 285.946 107.832 286.25 107.656C286.554 107.48 286.798 107.224 286.982 106.888C287.174 106.544 287.27 106.144 287.27 105.688ZM291.815 103.348C292.015 103.012 292.279 102.752 292.607 102.568C292.943 102.376 293.339 102.28 293.795 102.28V103.696H293.447C292.911 103.696 292.503 103.832 292.223 104.104C291.951 104.376 291.815 104.848 291.815 105.52V109H290.447V102.388H291.815V103.348ZM297.836 107.956C298.628 107.956 299.152 107.608 299.408 106.912H300.884C300.708 107.52 300.392 108.02 299.936 108.412C299.488 108.796 298.924 109.02 298.244 109.084V109.576C298.708 109.576 299.084 109.684 299.372 109.9C299.66 110.124 299.804 110.436 299.804 110.836C299.804 111.236 299.66 111.552 299.372 111.784C299.084 112.024 298.72 112.144 298.28 112.144H296.696V111.28H298.004C298.228 111.28 298.396 111.248 298.508 111.184C298.62 111.12 298.676 111.004 298.676 110.836C298.676 110.668 298.62 110.552 298.508 110.488C298.396 110.424 298.228 110.392 298.004 110.392H297.344V109.072C296.8 109.008 296.32 108.828 295.904 108.532C295.488 108.228 295.164 107.836 294.932 107.356C294.708 106.868 294.596 106.312 294.596 105.688C294.596 105.008 294.732 104.412 295.004 103.9C295.284 103.38 295.668 102.98 296.156 102.7C296.644 102.42 297.204 102.28 297.836 102.28C298.636 102.28 299.296 102.472 299.816 102.856C300.344 103.232 300.7 103.772 300.884 104.476H299.408C299.288 104.148 299.096 103.892 298.832 103.708C298.568 103.524 298.236 103.432 297.836 103.432C297.276 103.432 296.828 103.632 296.492 104.032C296.164 104.424 296 104.976 296 105.688C296 106.4 296.164 106.956 296.492 107.356C296.828 107.756 297.276 107.956 297.836 107.956ZM305.116 109.108C304.492 109.108 303.928 108.968 303.424 108.688C302.92 108.4 302.524 108 302.236 107.488C301.948 106.968 301.804 106.368 301.804 105.688C301.804 105.016 301.952 104.42 302.248 103.9C302.544 103.38 302.948 102.98 303.46 102.7C303.972 102.42 304.544 102.28 305.176 102.28C305.808 102.28 306.38 102.42 306.892 102.7C307.404 102.98 307.808 103.38 308.104 103.9C308.4 104.42 308.548 105.016 308.548 105.688C308.548 106.36 308.396 106.956 308.092 107.476C307.788 107.996 307.372 108.4 306.844 108.688C306.324 108.968 305.748 109.108 305.116 109.108ZM305.116 107.92C305.468 107.92 305.796 107.836 306.1 107.668C306.412 107.5 306.664 107.248 306.856 106.912C307.048 106.576 307.144 106.168 307.144 105.688C307.144 105.208 307.052 104.804 306.868 104.476C306.684 104.14 306.44 103.888 306.136 103.72C305.832 103.552 305.504 103.468 305.152 103.468C304.8 103.468 304.472 103.552 304.168 103.72C303.872 103.888 303.636 104.14 303.46 104.476C303.284 104.804 303.196 105.208 303.196 105.688C303.196 106.4 303.376 106.952 303.736 107.344C304.104 107.728 304.564 107.92 305.116 107.92Z" fill="#018EAA"/>
</g>
<defs>
<linearGradient id="paint0_linear_999_5006" x1="-3.99998" y1="-23" x2="325.166" y2="250.975" gradientUnits="userSpaceOnUse">
<stop stop-color="#DBF0FF"/>
<stop offset="1" stop-color="#E7EFFF"/>
</linearGradient>
<clipPath id="clip0_999_5006">
<rect width="327" height="144" rx="14" fill="white"/>
</clipPath>
<clipPath id="clip1_999_5006">
<rect width="227" height="227" rx="113.5" transform="matrix(-1 0 0 1 163 -41)" fill="white"/>
</clipPath>
</defs>
</svg>
